<?xml version="1.0" encoding="utf-8" standalone="no"?>
<!DOCTYPE svg PUBLIC "-//W3C//DTD SVG 1.1//EN"
  "http://www.w3.org/Graphics/SVG/1.1/DTD/svg11.dtd">
<svg xmlns:xlink="http://www.w3.org/1999/xlink" width="457.864173pt" height="457.92pt" viewBox="0 0 457.864173 457.92" xmlns="http://www.w3.org/2000/svg" version="1.1">
 <metadata>
  <rdf:RDF xmlns:dc="http://purl.org/dc/elements/1.1/" xmlns:cc="http://creativecommons.org/ns#" xmlns:rdf="http://www.w3.org/1999/02/22-rdf-syntax-ns#">
   <cc:Work>
    <dc:type rdf:resource="http://purl.org/dc/dcmitype/StillImage"/>
    <dc:date>2025-05-16T11:18:06.943892</dc:date>
    <dc:format>image/svg+xml</dc:format>
    <dc:creator>
     <cc:Agent>
      <dc:title>Matplotlib v3.6.3, https://matplotlib.org/</dc:title>
     </cc:Agent>
    </dc:creator>
   </cc:Work>
  </rdf:RDF>
 </metadata>
 <defs>
  <style type="text/css">*{stroke-linejoin: round; stroke-linecap: butt}</style>
 </defs>
 <g id="figure_1">
  <g id="patch_1">
   <path d="M 0 457.92 
L 457.864173 457.92 
L 457.864173 0 
L 0 0 
z
" style="fill: #ffffff"/>
  </g>
  <g id="axes_1">
   <g id="line2d_1">
    <path d="M 252.007347 228.96 
L 251.960787 227.493257 
L 251.821294 226.032421 
L 251.58943 224.583373 
L 251.266128 223.151948 
L 250.852691 221.74391 
L 250.350783 220.364928 
L 249.762425 219.020556 
L 249.089986 217.716207 
L 248.336174 216.457132 
L 247.504024 215.248402 
L 246.596887 214.094884 
L 245.618416 213.001222 
L 244.572551 211.971821 
L 243.463503 211.010825 
L 242.295737 210.122104 
L 241.073956 209.309236 
L 239.80308 208.575496 
L 238.488226 207.923836 
L 237.134688 207.356882 
L 235.747917 206.876916 
L 234.333496 206.48587 
L 232.897122 206.18532 
L 231.444578 205.976476 
L 229.981712 205.860178 
L 228.514415 205.836895 
L 227.048596 205.906721 
L 225.590156 206.069374 
L 224.144969 206.324199 
L 222.718854 206.670171 
L 221.317553 207.105896 
L 219.946708 207.62962 
L 218.61184 208.239234 
L 217.318324 208.932283 
L 216.071368 209.705976 
L 214.875993 210.557199 
L 213.737012 211.482523 
L 212.659012 212.478223 
L 211.646334 213.54029 
L 210.703055 214.664446 
L 209.832974 215.846165 
L 209.039594 217.080689 
L 208.326109 218.363046 
L 207.695393 219.688074 
L 207.149985 221.050437 
L 206.692082 222.444648 
L 206.323527 223.865095 
L 206.045804 225.306057 
L 205.860032 226.761732 
L 205.766959 228.226259 
L 205.766959 229.693741 
L 205.860032 231.158268 
L 206.045804 232.613943 
L 206.323527 234.054905 
L 206.692082 235.475352 
L 207.149985 236.869563 
L 207.695393 238.231926 
L 208.326109 239.556954 
L 209.039594 240.839311 
L 209.832974 242.073835 
L 210.703055 243.255554 
L 211.646334 244.37971 
L 212.659012 245.441777 
L 213.737012 246.437477 
L 214.875993 247.362801 
L 216.071368 248.214024 
L 217.318324 248.987717 
L 218.61184 249.680766 
L 219.946708 250.29038 
L 221.317553 250.814104 
L 222.718854 251.249829 
L 224.144969 251.595801 
L 225.590156 251.850626 
L 227.048596 252.013279 
L 228.514415 252.083105 
L 229.981712 252.059822 
L 231.444578 251.943524 
L 232.897122 251.73468 
L 234.333496 251.43413 
L 235.747917 251.043084 
L 237.134688 250.563118 
L 238.488226 249.996164 
L 239.80308 249.344504 
L 241.073956 248.610764 
L 242.295737 247.797896 
L 243.463503 246.909175 
L 244.572551 245.948179 
L 245.618416 244.918778 
L 246.596887 243.825116 
L 247.504024 242.671598 
L 248.336174 241.462868 
L 249.089986 240.203793 
L 249.762425 238.899444 
L 250.350783 237.555072 
L 250.852691 236.17609 
L 251.266128 234.768052 
L 251.58943 233.336627 
L 251.821294 231.887579 
L 251.960787 230.426743 
L 252.007347 228.96 
" clip-path="url(#p15d9a940aa)" style="fill: none; stroke: #000000; stroke-linecap: square"/>
   </g>
   <g id="line2d_2">
    <path d="M 258.298078 228.96 
L 258.238853 227.094275 
L 258.061415 225.236062 
L 257.766479 223.392844 
L 257.355233 221.572043 
L 256.829333 219.780991 
L 256.190896 218.0269 
L 255.442493 216.316832 
L 254.587137 214.657674 
L 253.628273 213.056106 
L 252.569763 211.518578 
L 251.415867 210.05128 
L 250.171232 208.660121 
L 248.840871 207.350702 
L 247.43014 206.128296 
L 245.944719 204.997826 
L 244.390589 203.963843 
L 242.77401 203.03051 
L 241.10149 202.201586 
L 239.379763 201.480409 
L 237.615763 200.869883 
L 235.816592 200.372466 
L 233.989496 199.99016 
L 232.141831 199.724506 
L 230.281037 199.576573 
L 228.414607 199.546956 
L 226.550056 199.635776 
L 224.694892 199.842674 
L 222.856586 200.166817 
L 221.042539 200.6069 
L 219.260056 201.161151 
L 217.516315 201.827338 
L 215.818337 202.602778 
L 214.172958 203.48435 
L 212.586806 204.468504 
L 211.066265 205.551276 
L 209.61746 206.728306 
L 208.246223 207.994856 
L 206.958076 209.345825 
L 205.758207 210.775774 
L 204.651447 212.278944 
L 203.642251 213.849282 
L 202.734685 215.480467 
L 201.932402 217.165928 
L 201.238632 218.89888 
L 200.65617 220.672345 
L 200.187361 222.479181 
L 199.834092 224.312113 
L 199.597787 226.16376 
L 199.479395 228.026667 
L 199.479395 229.893333 
L 199.597787 231.75624 
L 199.834092 233.607887 
L 200.187361 235.440819 
L 200.65617 237.247655 
L 201.238632 239.02112 
L 201.932402 240.754072 
L 202.734685 242.439533 
L 203.642251 244.070718 
L 204.651447 245.641056 
L 205.758207 247.144226 
L 206.958076 248.574175 
L 208.246223 249.925144 
L 209.61746 251.191694 
L 211.066265 252.368724 
L 212.586806 253.451496 
L 214.172958 254.43565 
L 215.818337 255.317222 
L 217.516315 256.092662 
L 219.260056 256.758849 
L 221.042539 257.3131 
L 222.856586 257.753183 
L 224.694892 258.077326 
L 226.550056 258.284224 
L 228.414607 258.373044 
L 230.281037 258.343427 
L 232.141831 258.195494 
L 233.989496 257.92984 
L 235.816592 257.547534 
L 237.615763 257.050117 
L 239.379763 256.439591 
L 241.10149 255.718414 
L 242.77401 254.88949 
L 244.390589 253.956157 
L 245.944719 252.922174 
L 247.43014 251.791704 
L 248.840871 250.569298 
L 250.171232 249.259879 
L 251.415867 247.86872 
L 252.569763 246.401422 
L 253.628273 244.863894 
L 254.587137 243.262326 
L 255.442493 241.603168 
L 256.190896 239.8931 
L 256.829333 238.139009 
L 257.355233 236.347957 
L 257.766479 234.527156 
L 258.061415 232.683938 
L 258.238853 230.825725 
L 258.298078 228.96 
" clip-path="url(#p15d9a940aa)" style="fill: none; stroke: #000000; stroke-linecap: square"/>
   </g>
   <g id="line2d_3">
    <path d="M 266.300011 228.96 
L 266.224675 226.586761 
L 265.998971 224.223078 
L 265.623807 221.878468 
L 265.100694 219.562374 
L 264.431738 217.284121 
L 263.619634 215.052882 
L 262.66765 212.877642 
L 261.579621 210.76716 
L 260.359928 208.729935 
L 259.013481 206.774168 
L 257.545703 204.907737 
L 255.962504 203.138155 
L 254.270258 201.472548 
L 252.47578 199.917624 
L 250.586295 198.479644 
L 248.609412 197.164397 
L 246.553092 195.977179 
L 244.425613 194.922772 
L 242.235543 194.005421 
L 239.9917 193.228819 
L 237.70312 192.596094 
L 235.379017 192.109794 
L 233.028751 191.771877 
L 230.661784 191.583703 
L 228.287648 191.546031 
L 225.915903 191.659011 
L 223.556098 191.922189 
L 221.217737 192.334505 
L 218.910233 192.894299 
L 216.64288 193.599317 
L 214.424807 194.44672 
L 212.264945 195.433096 
L 210.171992 196.554473 
L 208.154374 197.806336 
L 206.220217 199.183643 
L 204.377308 200.680849 
L 202.633068 202.291925 
L 200.99452 204.010385 
L 199.468263 205.829307 
L 198.060442 207.741369 
L 196.776725 209.73887 
L 195.622283 211.813769 
L 194.601763 213.957709 
L 193.719275 216.162058 
L 192.978372 218.41794 
L 192.382037 220.716271 
L 191.932672 223.047796 
L 191.632087 225.403128 
L 191.481491 227.772783 
L 191.481491 230.147217 
L 191.632087 232.516872 
L 191.932672 234.872204 
L 192.382037 237.203729 
L 192.978372 239.50206 
L 193.719275 241.757942 
L 194.601763 243.962291 
L 195.622283 246.106231 
L 196.776725 248.18113 
L 198.060442 250.178631 
L 199.468263 252.090693 
L 200.99452 253.909615 
L 202.633068 255.628075 
L 204.377308 257.239151 
L 206.220217 258.736357 
L 208.154374 260.113664 
L 210.171992 261.365527 
L 212.264945 262.486904 
L 214.424807 263.47328 
L 216.64288 264.320683 
L 218.910233 265.025701 
L 221.217737 265.585495 
L 223.556098 265.997811 
L 225.915903 266.260989 
L 228.287648 266.373969 
L 230.661784 266.336297 
L 233.028751 266.148123 
L 235.379017 265.810206 
L 237.70312 265.323906 
L 239.9917 264.691181 
L 242.235543 263.914579 
L 244.425613 262.997228 
L 246.553092 261.942821 
L 248.609412 260.755603 
L 250.586295 259.440356 
L 252.47578 258.002376 
L 254.270258 256.447452 
L 255.962504 254.781845 
L 257.545703 253.012263 
L 259.013481 251.145832 
L 260.359928 249.190065 
L 261.579621 247.15284 
L 262.66765 245.042358 
L 263.619634 242.867118 
L 264.431738 240.635879 
L 265.100694 238.357626 
L 265.623807 236.041532 
L 265.998971 233.696922 
L 266.224675 231.333239 
L 266.300011 228.96 
" clip-path="url(#p15d9a940aa)" style="fill: none; stroke: #000000; stroke-linecap: square"/>
   </g>
   <g id="line2d_4">
    <path d="M 276.478627 228.96 
L 276.382798 225.941193 
L 276.095698 222.934542 
L 275.618482 219.952153 
L 274.953072 217.006035 
L 274.102147 214.108052 
L 273.069134 211.269872 
L 271.858193 208.502925 
L 270.474199 205.81835 
L 268.922725 203.226959 
L 267.210018 200.739186 
L 265.342975 198.365048 
L 263.329114 196.114105 
L 261.176545 193.995421 
L 258.893933 192.017527 
L 256.490472 190.188388 
L 253.975838 188.515368 
L 251.360158 187.005204 
L 248.653963 185.663977 
L 245.868151 184.497088 
L 243.013938 183.509236 
L 240.102819 182.704398 
L 237.146515 182.085814 
L 234.15693 181.655977 
L 231.146102 181.416616 
L 228.126155 181.368696 
L 225.109248 181.512409 
L 222.10753 181.847176 
L 219.133088 182.371651 
L 216.197899 183.08372 
L 213.313781 183.980517 
L 210.492349 185.05843 
L 207.744962 186.31312 
L 205.082684 187.739533 
L 202.516235 189.331927 
L 200.055948 191.083889 
L 197.711732 192.988364 
L 195.493024 195.037685 
L 193.408759 197.223599 
L 191.46733 199.537304 
L 189.676554 201.969484 
L 188.043642 204.510345 
L 186.575168 207.149657 
L 185.277047 209.876791 
L 184.154504 212.680766 
L 183.212061 215.550292 
L 182.453512 218.473814 
L 181.881911 221.439561 
L 181.49956 224.435589 
L 181.307999 227.449836 
L 181.307999 230.470164 
L 181.49956 233.484411 
L 181.881911 236.480439 
L 182.453512 239.446186 
L 183.212061 242.369708 
L 184.154504 245.239234 
L 185.277047 248.043209 
L 186.575168 250.770343 
L 188.043642 253.409655 
L 189.676554 255.950516 
L 191.46733 258.382696 
L 193.408759 260.696401 
L 195.493024 262.882315 
L 197.711732 264.931636 
L 200.055948 266.836111 
L 202.516235 268.588073 
L 205.082684 270.180467 
L 207.744962 271.60688 
L 210.492349 272.86157 
L 213.313781 273.939483 
L 216.197899 274.83628 
L 219.133088 275.548349 
L 222.10753 276.072824 
L 225.109248 276.407591 
L 228.126155 276.551304 
L 231.146102 276.503384 
L 234.15693 276.264023 
L 237.146515 275.834186 
L 240.102819 275.215602 
L 243.013938 274.410764 
L 245.868151 273.422912 
L 248.653963 272.256023 
L 251.360158 270.914796 
L 253.975838 269.404632 
L 256.490472 267.731612 
L 258.893933 265.902473 
L 261.176545 263.924579 
L 263.329114 261.805895 
L 265.342975 259.554952 
L 267.210018 257.180814 
L 268.922725 254.693041 
L 270.474199 252.10165 
L 271.858193 249.417075 
L 273.069134 246.650128 
L 274.102147 243.811948 
L 274.953072 240.913965 
L 275.618482 237.967847 
L 276.095698 234.985458 
L 276.382798 231.978807 
L 276.478627 228.96 
" clip-path="url(#p15d9a940aa)" style="fill: none; stroke: #000000; stroke-linecap: square"/>
   </g>
   <g id="line2d_5">
    <path d="M 289.426027 228.96 
L 289.304131 225.120018 
L 288.938933 221.295499 
L 288.331905 217.501841 
L 287.485491 213.754322 
L 286.403098 210.06803 
L 285.089085 206.45781 
L 283.548744 202.938198 
L 281.788276 199.523367 
L 279.81477 196.227067 
L 277.636174 193.06257 
L 275.261259 190.04262 
L 272.699588 187.179377 
L 269.961477 184.484369 
L 267.057951 181.968449 
L 264.0007 179.641747 
L 260.802037 177.513633 
L 257.47484 175.592675 
L 254.032507 173.886608 
L 250.488899 172.402303 
L 246.858285 171.145735 
L 243.155284 170.121965 
L 239.394808 169.335115 
L 235.591997 168.788353 
L 231.762164 168.483882 
L 227.920732 168.422926 
L 224.083167 168.605732 
L 220.264923 169.031563 
L 216.481374 169.698704 
L 212.747756 170.60447 
L 209.079102 171.745214 
L 205.490184 173.116341 
L 201.995454 174.71233 
L 198.608984 176.526756 
L 195.34441 178.552312 
L 192.214878 180.780842 
L 189.232988 183.203372 
L 186.410748 185.810149 
L 183.759523 188.590674 
L 181.289987 191.533753 
L 179.012084 194.627533 
L 176.934988 197.859559 
L 175.06706 201.216815 
L 173.415824 204.685783 
L 171.987928 208.252495 
L 170.789122 211.902588 
L 169.824233 215.621366 
L 169.097145 219.393854 
L 168.610788 223.204861 
L 168.367118 227.039042 
L 168.367118 230.880958 
L 168.610788 234.715139 
L 169.097145 238.526146 
L 169.824233 242.298634 
L 170.789122 246.017412 
L 171.987928 249.667505 
L 173.415824 253.234217 
L 175.06706 256.703185 
L 176.934988 260.060441 
L 179.012084 263.292467 
L 181.289987 266.386247 
L 183.759523 269.329326 
L 186.410748 272.109851 
L 189.232988 274.716628 
L 192.214878 277.139158 
L 195.34441 279.367688 
L 198.608984 281.393244 
L 201.995454 283.20767 
L 205.490184 284.803659 
L 209.079102 286.174786 
L 212.747756 287.31553 
L 216.481374 288.221296 
L 220.264923 288.888437 
L 224.083167 289.314268 
L 227.920732 289.497074 
L 231.762164 289.436118 
L 235.591997 289.131647 
L 239.394808 288.584885 
L 243.155284 287.798035 
L 246.858285 286.774265 
L 250.488899 285.517697 
L 254.032507 284.033392 
L 257.47484 282.327325 
L 260.802037 280.406367 
L 264.0007 278.278253 
L 267.057951 275.951551 
L 269.961477 273.435631 
L 272.699588 270.740623 
L 275.261259 267.87738 
L 277.636174 264.85743 
L 279.81477 261.692933 
L 281.788276 258.396633 
L 283.548744 254.981802 
L 285.089085 251.46219 
L 286.403098 247.85197 
L 287.485491 244.165678 
L 288.331905 240.418159 
L 288.938933 236.624501 
L 289.304131 232.799982 
L 289.426027 228.96 
" clip-path="url(#p15d9a940aa)" style="fill: none; stroke: #000000; stroke-linecap: square"/>
   </g>
   <g id="line2d_6">
    <path d="M 305.895373 228.96 
L 305.740319 224.075468 
L 305.275781 219.210603 
L 304.503629 214.384997 
L 303.426973 209.618078 
L 302.050148 204.929043 
L 300.378698 200.336772 
L 298.419354 195.859757 
L 296.180004 191.516024 
L 293.669666 187.323065 
L 290.898449 183.297764 
L 287.87751 179.456328 
L 284.619015 175.814226 
L 281.136084 172.386123 
L 277.442741 169.185824 
L 273.553859 166.226214 
L 269.485096 163.51921 
L 265.252836 161.075714 
L 260.874121 158.905563 
L 256.366582 157.017498 
L 251.74837 155.419119 
L 247.03808 154.116863 
L 242.25468 153.115975 
L 237.417429 152.420483 
L 232.545807 152.033189 
L 227.65943 151.955652 
L 222.777972 152.188185 
L 217.921091 152.72985 
L 213.108342 153.578467 
L 208.359106 154.73062 
L 203.692506 156.181667 
L 199.127332 157.925768 
L 194.681967 159.955898 
L 190.374311 162.263883 
L 186.221709 164.84043 
L 182.240882 167.675164 
L 178.44786 170.756671 
L 174.857915 174.072541 
L 171.485504 177.609424 
L 168.344206 181.353078 
L 165.446669 185.288428 
L 162.804561 189.399628 
L 160.428521 193.670123 
L 158.328117 198.082719 
L 156.511805 202.619646 
L 154.9869 207.262637 
L 153.759541 211.992995 
L 152.834672 216.791674 
L 152.216015 221.63935 
L 151.906063 226.516504 
L 151.906063 231.403496 
L 152.216015 236.28065 
L 152.834672 241.128326 
L 153.759541 245.927005 
L 154.9869 250.657363 
L 156.511805 255.300354 
L 158.328117 259.837281 
L 160.428521 264.249877 
L 162.804561 268.520372 
L 165.446669 272.631572 
L 168.344206 276.566922 
L 171.485504 280.310576 
L 174.857915 283.847459 
L 178.44786 287.163329 
L 182.240882 290.244836 
L 186.221709 293.07957 
L 190.374311 295.656117 
L 194.681967 297.964102 
L 199.127332 299.994232 
L 203.692506 301.738333 
L 208.359106 303.18938 
L 213.108342 304.341533 
L 217.921091 305.19015 
L 222.777972 305.731815 
L 227.65943 305.964348 
L 232.545807 305.886811 
L 237.417429 305.499517 
L 242.25468 304.804025 
L 247.03808 303.803137 
L 251.74837 302.500881 
L 256.366582 300.902502 
L 260.874121 299.014437 
L 265.252836 296.844286 
L 269.485096 294.40079 
L 273.553859 291.693786 
L 277.442741 288.734176 
L 281.136084 285.533877 
L 284.619015 282.105774 
L 287.87751 278.463672 
L 290.898449 274.622236 
L 293.669666 270.596935 
L 296.180004 266.403976 
L 298.419354 262.060243 
L 300.378698 257.583228 
L 302.050148 252.990957 
L 303.426973 248.301922 
L 304.503629 243.535003 
L 305.275781 238.709397 
L 305.740319 233.844532 
L 305.895373 228.96 
" clip-path="url(#p15d9a940aa)" style="fill: none; stroke: #000000; stroke-linecap: square"/>
   </g>
   <g id="line2d_7">
    <path d="M 326.844706 228.96 
L 326.647474 222.746779 
L 326.056572 216.558576 
L 325.07438 210.420309 
L 323.704853 204.356696 
L 321.953504 198.392151 
L 319.827387 192.550692 
L 317.335062 186.85584 
L 314.486565 181.330527 
L 311.293366 175.997001 
L 307.768323 170.876739 
L 303.92563 165.990357 
L 299.78076 161.357531 
L 295.350403 156.996917 
L 290.652399 152.926073 
L 285.705664 149.161391 
L 280.530118 145.71803 
L 275.1466 142.609854 
L 269.576788 139.84938 
L 263.84311 137.447723 
L 257.968654 135.414554 
L 251.977073 133.758059 
L 245.892493 132.484909 
L 239.739416 131.60023 
L 233.542617 131.107585 
L 227.327048 131.008956 
L 221.117738 131.304742 
L 214.93969 131.993751 
L 208.817779 133.073209 
L 202.776658 134.53877 
L 196.84065 136.384531 
L 191.033659 138.603061 
L 185.379068 141.185426 
L 179.899644 144.121229 
L 174.617453 147.398648 
L 169.553763 151.004485 
L 164.728964 154.924221 
L 160.162485 159.142074 
L 155.872711 163.641059 
L 151.876918 168.40306 
L 148.191194 173.408902 
L 144.830381 178.638429 
L 141.808012 184.070584 
L 139.136256 189.683492 
L 136.825872 195.454553 
L 134.886162 201.360528 
L 133.324938 207.377637 
L 132.148486 213.48165 
L 131.361543 219.647989 
L 130.967278 225.851825 
L 130.967278 232.068175 
L 131.361543 238.272011 
L 132.148486 244.43835 
L 133.324938 250.542363 
L 134.886162 256.559472 
L 136.825872 262.465447 
L 139.136256 268.236508 
L 141.808012 273.849416 
L 144.830381 279.281571 
L 148.191194 284.511098 
L 151.876918 289.51694 
L 155.872711 294.278941 
L 160.162485 298.777926 
L 164.728964 302.995779 
L 169.553763 306.915515 
L 174.617453 310.521352 
L 179.899644 313.798771 
L 185.379068 316.734574 
L 191.033659 319.316939 
L 196.84065 321.535469 
L 202.776658 323.38123 
L 208.817779 324.846791 
L 214.93969 325.926249 
L 221.117738 326.615258 
L 227.327048 326.911044 
L 233.542617 326.812415 
L 239.739416 326.31977 
L 245.892493 325.435091 
L 251.977073 324.161941 
L 257.968654 322.505446 
L 263.84311 320.472277 
L 269.576788 318.07062 
L 275.1466 315.310146 
L 280.530118 312.20197 
L 285.705664 308.758609 
L 290.652399 304.993927 
L 295.350403 300.923083 
L 299.78076 296.562469 
L 303.92563 291.929643 
L 307.768323 287.043261 
L 311.293366 281.922999 
L 314.486565 276.589473 
L 317.335062 271.06416 
L 319.827387 265.369308 
L 321.953504 259.527849 
L 323.704853 253.563304 
L 325.07438 247.499691 
L 326.056572 241.361424 
L 326.647474 235.173221 
L 326.844706 228.96 
" clip-path="url(#p15d9a940aa)" style="fill: none; stroke: #000000; stroke-linecap: square"/>
   </g>
   <g id="line2d_8">
    <path d="M 353.492669 228.96 
L 353.241786 221.056661 
L 352.490147 213.185145 
L 351.24078 205.377149 
L 349.498714 197.664113 
L 347.270964 190.077095 
L 344.566501 182.646644 
L 341.396215 175.402681 
L 337.772871 168.374375 
L 333.711059 161.590025 
L 329.227135 155.07695 
L 324.339154 148.861376 
L 319.066798 142.968332 
L 313.431297 137.421545 
L 307.455343 132.243351 
L 301.162999 127.454601 
L 294.579602 123.074578 
L 287.731662 119.120918 
L 280.646752 115.609541 
L 273.353401 112.554586 
L 265.880977 109.968355 
L 258.259568 107.861261 
L 250.519863 106.241789 
L 242.693028 105.11646 
L 234.810578 104.489805 
L 226.904253 104.364348 
L 219.005889 104.740593 
L 211.147289 105.617026 
L 203.360099 106.990118 
L 195.675673 108.85434 
L 188.124955 111.202184 
L 180.738349 114.024198 
L 173.545597 117.309018 
L 166.575663 121.043416 
L 159.856612 125.212357 
L 153.415499 129.799053 
L 147.27826 134.785035 
L 141.469608 140.150226 
L 136.012932 145.873023 
L 130.930204 151.930382 
L 126.241891 158.297912 
L 121.966871 164.949973 
L 118.122358 171.85978 
L 114.723832 178.99951 
L 111.784978 186.340413 
L 109.317629 193.852929 
L 107.331721 201.50681 
L 105.835251 209.271235 
L 104.834244 217.114939 
L 104.332731 225.00634 
L 104.332731 232.91366 
L 104.834244 240.805061 
L 105.835251 248.648765 
L 107.331721 256.41319 
L 109.317629 264.067071 
L 111.784978 271.579587 
L 114.723832 278.92049 
L 118.122358 286.06022 
L 121.966871 292.970027 
L 126.241891 299.622088 
L 130.930204 305.989618 
L 136.012932 312.046977 
L 141.469608 317.769774 
L 147.27826 323.134965 
L 153.415499 328.120947 
L 159.856612 332.707643 
L 166.575663 336.876584 
L 173.545597 340.610982 
L 180.738349 343.895802 
L 188.124955 346.717816 
L 195.675673 349.06566 
L 203.360099 350.929882 
L 211.147289 352.302974 
L 219.005889 353.179407 
L 226.904253 353.555652 
L 234.810578 353.430195 
L 242.693028 352.80354 
L 250.519863 351.678211 
L 258.259568 350.058739 
L 265.880977 347.951645 
L 273.353401 345.365414 
L 280.646752 342.310459 
L 287.731662 338.799082 
L 294.579602 334.845422 
L 301.162999 330.465399 
L 307.455343 325.676649 
L 313.431297 320.498455 
L 319.066798 314.951668 
L 324.339154 309.058624 
L 329.227135 302.84305 
L 333.711059 296.329975 
L 337.772871 289.545625 
L 341.396215 282.517319 
L 344.566501 275.273356 
L 347.270964 267.842905 
L 349.498714 260.255887 
L 351.24078 252.542851 
L 352.490147 244.734855 
L 353.241786 236.863339 
L 353.492669 228.96 
" clip-path="url(#p15d9a940aa)" style="fill: none; stroke: #000000; stroke-linecap: square"/>
   </g>
   <g id="line2d_9">
    <path d="M 387.389401 228.96 
L 387.070273 218.906797 
L 386.114174 208.894075 
L 384.524954 198.962151 
L 382.309012 189.151017 
L 379.47527 179.500181 
L 376.035141 170.048502 
L 372.002474 160.834038 
L 367.393509 151.893894 
L 362.226805 143.264068 
L 356.523166 134.979309 
L 350.305557 127.072977 
L 343.599017 119.576908 
L 336.430549 112.521286 
L 328.829018 105.934522 
L 320.825033 99.843138 
L 312.450823 94.271662 
L 303.740108 89.242529 
L 294.727963 84.775988 
L 285.450678 80.890026 
L 275.945607 77.600289 
L 266.251025 74.920024 
L 256.405969 72.860024 
L 246.450081 71.428584 
L 236.423449 70.631466 
L 226.366448 70.471882 
L 216.319574 70.950474 
L 206.323281 72.065314 
L 196.417822 73.811914 
L 186.643082 76.18324 
L 177.03842 79.169745 
L 167.642512 82.759401 
L 158.49319 86.937757 
L 149.627297 91.687985 
L 141.080532 96.99096 
L 132.887309 102.825327 
L 125.080621 109.167594 
L 117.691901 115.992223 
L 110.750902 123.271733 
L 104.285573 130.976812 
L 98.321947 139.076436 
L 92.884037 147.537988 
L 87.993741 156.327399 
L 83.670749 165.409275 
L 79.932468 174.747047 
L 76.793953 184.303116 
L 74.267839 194.039003 
L 72.3643 203.915504 
L 71.090999 213.89285 
L 70.453064 223.930867 
L 70.453064 233.989133 
L 71.090999 244.02715 
L 72.3643 254.004496 
L 74.267839 263.880997 
L 76.793953 273.616884 
L 79.932468 283.172953 
L 83.670749 292.510725 
L 87.993741 301.592601 
L 92.884037 310.382012 
L 98.321947 318.843564 
L 104.285573 326.943188 
L 110.750902 334.648267 
L 117.691901 341.927777 
L 125.080621 348.752406 
L 132.887309 355.094673 
L 141.080532 360.92904 
L 149.627297 366.232015 
L 158.49319 370.982243 
L 167.642512 375.160599 
L 177.03842 378.750255 
L 186.643082 381.73676 
L 196.417822 384.108086 
L 206.323281 385.854686 
L 216.319574 386.969526 
L 226.366448 387.448118 
L 236.423449 387.288534 
L 246.450081 386.491416 
L 256.405969 385.059976 
L 266.251025 382.999976 
L 275.945607 380.319711 
L 285.450678 377.029974 
L 294.727963 373.144012 
L 303.740108 368.677471 
L 312.450823 363.648338 
L 320.825033 358.076862 
L 328.829018 351.985478 
L 336.430549 345.398714 
L 343.599017 338.343092 
L 350.305557 330.847023 
L 356.523166 322.940691 
L 362.226805 314.655932 
L 367.393509 306.026106 
L 372.002474 297.085962 
L 376.035141 287.871498 
L 379.47527 278.419819 
L 382.309012 268.768983 
L 384.524954 258.957849 
L 386.114174 249.025925 
L 387.070273 239.013203 
L 387.389401 228.96 
" clip-path="url(#p15d9a940aa)" style="fill: none; stroke: #000000; stroke-linecap: square"/>
   </g>
   <g id="line2d_10">
    <path d="M 430.506711 228.96 
L 430.100774 216.172128 
L 428.884597 203.435749 
L 426.863077 190.802146 
L 424.044355 178.322192 
L 420.439781 166.046138 
L 416.063868 154.023416 
L 410.934237 142.302438 
L 405.071544 130.930399 
L 398.499394 119.95309 
L 391.244253 109.414714 
L 383.335333 99.357705 
L 374.804481 89.822558 
L 365.686049 80.847668 
L 356.016752 72.469175 
L 345.835526 64.720815 
L 335.183366 57.633788 
L 324.103166 51.236631 
L 312.639541 45.555104 
L 300.838651 40.612084 
L 288.748015 36.427474 
L 276.416316 33.018124 
L 263.893211 30.397764 
L 251.229126 28.576943 
L 238.475053 27.562994 
L 225.682351 27.36 
L 212.902529 27.968778 
L 200.187048 29.386877 
L 187.58711 31.608586 
L 175.153448 34.624959 
L 162.93613 38.423852 
L 150.984349 42.989966 
L 139.346233 48.304916 
L 128.068642 54.3473 
L 117.196989 61.092787 
L 106.775049 68.514217 
L 96.844788 76.581706 
L 87.446192 85.262768 
L 78.617104 94.522448 
L 70.393078 104.32346 
L 62.807229 114.62634 
L 55.890101 125.389601 
L 49.669547 136.569904 
L 44.170617 148.122229 
L 39.415451 160.000059 
L 35.423197 172.155566 
L 32.209931 184.539805 
L 29.788591 197.102909 
L 28.168928 209.794289 
L 27.357462 222.562843 
L 27.357462 235.357157 
L 28.168928 248.125711 
L 29.788591 260.817091 
L 32.209931 273.380195 
L 35.423197 285.764434 
L 39.415451 297.919941 
L 44.170617 309.797771 
L 49.669547 321.350096 
L 55.890101 332.530399 
L 62.807229 343.29366 
L 70.393078 353.59654 
L 78.617104 363.397552 
L 87.446192 372.657232 
L 96.844788 381.338294 
L 106.775049 389.405783 
L 117.196989 396.827213 
L 128.068642 403.5727 
L 139.346233 409.615084 
L 150.984349 414.930034 
L 162.93613 419.496148 
L 175.153448 423.295041 
L 187.58711 426.311414 
L 200.187048 428.533123 
L 212.902529 429.951222 
L 225.682351 430.56 
L 238.475053 430.357006 
L 251.229126 429.343057 
L 263.893211 427.522236 
L 276.416316 424.901876 
L 288.748015 421.492526 
L 300.838651 417.307916 
L 312.639541 412.364896 
L 324.103166 406.683369 
L 335.183366 400.286212 
L 345.835526 393.199185 
L 356.016752 385.450825 
L 365.686049 377.072332 
L 374.804481 368.097442 
L 383.335333 358.562295 
L 391.244253 348.505286 
L 398.499394 337.96691 
L 405.071544 326.989601 
L 410.934237 315.617562 
L 416.063868 303.896584 
L 420.439781 291.873862 
L 424.044355 279.597808 
L 426.863077 267.117854 
L 428.884597 254.484251 
L 430.100774 241.747872 
L 430.506711 228.96 
" clip-path="url(#p15d9a940aa)" style="fill: none; stroke: #000000; stroke-linecap: square"/>
   </g>
   <g id="text_1">
    <!-- Christic Axis -->
    <g style="fill: #333333" transform="translate(227.527765 231.719375) scale(0.1 -0.1)">
     <defs>
      <path id="DejaVuSans-43" d="M 4122 4306 
L 4122 3641 
Q 3803 3938 3442 4084 
Q 3081 4231 2675 4231 
Q 1875 4231 1450 3742 
Q 1025 3253 1025 2328 
Q 1025 1406 1450 917 
Q 1875 428 2675 428 
Q 3081 428 3442 575 
Q 3803 722 4122 1019 
L 4122 359 
Q 3791 134 3420 21 
Q 3050 -91 2638 -91 
Q 1578 -91 968 557 
Q 359 1206 359 2328 
Q 359 3453 968 4101 
Q 1578 4750 2638 4750 
Q 3056 4750 3426 4639 
Q 3797 4528 4122 4306 
z
" transform="scale(0.015625)"/>
      <path id="DejaVuSans-68" d="M 3513 2113 
L 3513 0 
L 2938 0 
L 2938 2094 
Q 2938 2591 2744 2837 
Q 2550 3084 2163 3084 
Q 1697 3084 1428 2787 
Q 1159 2491 1159 1978 
L 1159 0 
L 581 0 
L 581 4863 
L 1159 4863 
L 1159 2956 
Q 1366 3272 1645 3428 
Q 1925 3584 2291 3584 
Q 2894 3584 3203 3211 
Q 3513 2838 3513 2113 
z
" transform="scale(0.015625)"/>
      <path id="DejaVuSans-72" d="M 2631 2963 
Q 2534 3019 2420 3045 
Q 2306 3072 2169 3072 
Q 1681 3072 1420 2755 
Q 1159 2438 1159 1844 
L 1159 0 
L 581 0 
L 581 3500 
L 1159 3500 
L 1159 2956 
Q 1341 3275 1631 3429 
Q 1922 3584 2338 3584 
Q 2397 3584 2469 3576 
Q 2541 3569 2628 3553 
L 2631 2963 
z
" transform="scale(0.015625)"/>
      <path id="DejaVuSans-69" d="M 603 3500 
L 1178 3500 
L 1178 0 
L 603 0 
L 603 3500 
z
M 603 4863 
L 1178 4863 
L 1178 4134 
L 603 4134 
L 603 4863 
z
" transform="scale(0.015625)"/>
      <path id="DejaVuSans-73" d="M 2834 3397 
L 2834 2853 
Q 2591 2978 2328 3040 
Q 2066 3103 1784 3103 
Q 1356 3103 1142 2972 
Q 928 2841 928 2578 
Q 928 2378 1081 2264 
Q 1234 2150 1697 2047 
L 1894 2003 
Q 2506 1872 2764 1633 
Q 3022 1394 3022 966 
Q 3022 478 2636 193 
Q 2250 -91 1575 -91 
Q 1294 -91 989 -36 
Q 684 19 347 128 
L 347 722 
Q 666 556 975 473 
Q 1284 391 1588 391 
Q 1994 391 2212 530 
Q 2431 669 2431 922 
Q 2431 1156 2273 1281 
Q 2116 1406 1581 1522 
L 1381 1569 
Q 847 1681 609 1914 
Q 372 2147 372 2553 
Q 372 3047 722 3315 
Q 1072 3584 1716 3584 
Q 2034 3584 2315 3537 
Q 2597 3491 2834 3397 
z
" transform="scale(0.015625)"/>
      <path id="DejaVuSans-74" d="M 1172 4494 
L 1172 3500 
L 2356 3500 
L 2356 3053 
L 1172 3053 
L 1172 1153 
Q 1172 725 1289 603 
Q 1406 481 1766 481 
L 2356 481 
L 2356 0 
L 1766 0 
Q 1100 0 847 248 
Q 594 497 594 1153 
L 594 3053 
L 172 3053 
L 172 3500 
L 594 3500 
L 594 4494 
L 1172 4494 
z
" transform="scale(0.015625)"/>
      <path id="DejaVuSans-63" d="M 3122 3366 
L 3122 2828 
Q 2878 2963 2633 3030 
Q 2388 3097 2138 3097 
Q 1578 3097 1268 2742 
Q 959 2388 959 1747 
Q 959 1106 1268 751 
Q 1578 397 2138 397 
Q 2388 397 2633 464 
Q 2878 531 3122 666 
L 3122 134 
Q 2881 22 2623 -34 
Q 2366 -91 2075 -91 
Q 1284 -91 818 406 
Q 353 903 353 1747 
Q 353 2603 823 3093 
Q 1294 3584 2113 3584 
Q 2378 3584 2631 3529 
Q 2884 3475 3122 3366 
z
" transform="scale(0.015625)"/>
      <path id="DejaVuSans-20" transform="scale(0.015625)"/>
      <path id="DejaVuSans-41" d="M 2188 4044 
L 1331 1722 
L 3047 1722 
L 2188 4044 
z
M 1831 4666 
L 2547 4666 
L 4325 0 
L 3669 0 
L 3244 1197 
L 1141 1197 
L 716 0 
L 50 0 
L 1831 4666 
z
" transform="scale(0.015625)"/>
      <path id="DejaVuSans-78" d="M 3513 3500 
L 2247 1797 
L 3578 0 
L 2900 0 
L 1881 1375 
L 863 0 
L 184 0 
L 1544 1831 
L 300 3500 
L 978 3500 
L 1906 2253 
L 2834 3500 
L 3513 3500 
z
" transform="scale(0.015625)"/>
     </defs>
     <use xlink:href="#DejaVuSans-43"/>
     <use xlink:href="#DejaVuSans-68" x="69.824219"/>
     <use xlink:href="#DejaVuSans-72" x="133.203125"/>
     <use xlink:href="#DejaVuSans-69" x="174.316406"/>
     <use xlink:href="#DejaVuSans-73" x="202.099609"/>
     <use xlink:href="#DejaVuSans-74" x="254.199219"/>
     <use xlink:href="#DejaVuSans-69" x="293.408203"/>
     <use xlink:href="#DejaVuSans-63" x="321.191406"/>
     <use xlink:href="#DejaVuSans-20" x="376.171875"/>
     <use xlink:href="#DejaVuSans-41" x="407.958984"/>
     <use xlink:href="#DejaVuSans-78" x="476.367188"/>
     <use xlink:href="#DejaVuSans-69" x="535.546875"/>
     <use xlink:href="#DejaVuSans-73" x="563.330078"/>
    </g>
   </g>
   <g id="text_2">
    <!-- Fractal Christ -->
    <g style="fill: #333333" transform="translate(233.760089 227.267925) rotate(-51.428571) scale(0.1 -0.1)">
     <defs>
      <path id="DejaVuSans-46" d="M 628 4666 
L 3309 4666 
L 3309 4134 
L 1259 4134 
L 1259 2759 
L 3109 2759 
L 3109 2228 
L 1259 2228 
L 1259 0 
L 628 0 
L 628 4666 
z
" transform="scale(0.015625)"/>
      <path id="DejaVuSans-61" d="M 2194 1759 
Q 1497 1759 1228 1600 
Q 959 1441 959 1056 
Q 959 750 1161 570 
Q 1363 391 1709 391 
Q 2188 391 2477 730 
Q 2766 1069 2766 1631 
L 2766 1759 
L 2194 1759 
z
M 3341 1997 
L 3341 0 
L 2766 0 
L 2766 531 
Q 2569 213 2275 61 
Q 1981 -91 1556 -91 
Q 1019 -91 701 211 
Q 384 513 384 1019 
Q 384 1609 779 1909 
Q 1175 2209 1959 2209 
L 2766 2209 
L 2766 2266 
Q 2766 2663 2505 2880 
Q 2244 3097 1772 3097 
Q 1472 3097 1187 3025 
Q 903 2953 641 2809 
L 641 3341 
Q 956 3463 1253 3523 
Q 1550 3584 1831 3584 
Q 2591 3584 2966 3190 
Q 3341 2797 3341 1997 
z
" transform="scale(0.015625)"/>
      <path id="DejaVuSans-6c" d="M 603 4863 
L 1178 4863 
L 1178 0 
L 603 0 
L 603 4863 
z
" transform="scale(0.015625)"/>
     </defs>
     <use xlink:href="#DejaVuSans-46"/>
     <use xlink:href="#DejaVuSans-72" x="50.269531"/>
     <use xlink:href="#DejaVuSans-61" x="91.382812"/>
     <use xlink:href="#DejaVuSans-63" x="152.662109"/>
     <use xlink:href="#DejaVuSans-74" x="207.642578"/>
     <use xlink:href="#DejaVuSans-61" x="246.851562"/>
     <use xlink:href="#DejaVuSans-6c" x="308.130859"/>
     <use xlink:href="#DejaVuSans-20" x="335.914062"/>
     <use xlink:href="#DejaVuSans-43" x="367.701172"/>
     <use xlink:href="#DejaVuSans-68" x="437.525391"/>
     <use xlink:href="#DejaVuSans-72" x="500.904297"/>
     <use xlink:href="#DejaVuSans-69" x="542.017578"/>
     <use xlink:href="#DejaVuSans-73" x="569.800781"/>
     <use xlink:href="#DejaVuSans-74" x="621.900391"/>
    </g>
   </g>
   <g id="text_3">
    <!-- Relational Recursion -->
    <g style="fill: #333333" transform="translate(232.31079 231.584922) rotate(-102.857143) scale(0.1 -0.1)">
     <defs>
      <path id="DejaVuSans-52" d="M 2841 2188 
Q 3044 2119 3236 1894 
Q 3428 1669 3622 1275 
L 4263 0 
L 3584 0 
L 2988 1197 
Q 2756 1666 2539 1819 
Q 2322 1972 1947 1972 
L 1259 1972 
L 1259 0 
L 628 0 
L 628 4666 
L 2053 4666 
Q 2853 4666 3247 4331 
Q 3641 3997 3641 3322 
Q 3641 2881 3436 2590 
Q 3231 2300 2841 2188 
z
M 1259 4147 
L 1259 2491 
L 2053 2491 
Q 2509 2491 2742 2702 
Q 2975 2913 2975 3322 
Q 2975 3731 2742 3939 
Q 2509 4147 2053 4147 
L 1259 4147 
z
" transform="scale(0.015625)"/>
      <path id="DejaVuSans-65" d="M 3597 1894 
L 3597 1613 
L 953 1613 
Q 991 1019 1311 708 
Q 1631 397 2203 397 
Q 2534 397 2845 478 
Q 3156 559 3463 722 
L 3463 178 
Q 3153 47 2828 -22 
Q 2503 -91 2169 -91 
Q 1331 -91 842 396 
Q 353 884 353 1716 
Q 353 2575 817 3079 
Q 1281 3584 2069 3584 
Q 2775 3584 3186 3129 
Q 3597 2675 3597 1894 
z
M 3022 2063 
Q 3016 2534 2758 2815 
Q 2500 3097 2075 3097 
Q 1594 3097 1305 2825 
Q 1016 2553 972 2059 
L 3022 2063 
z
" transform="scale(0.015625)"/>
      <path id="DejaVuSans-6f" d="M 1959 3097 
Q 1497 3097 1228 2736 
Q 959 2375 959 1747 
Q 959 1119 1226 758 
Q 1494 397 1959 397 
Q 2419 397 2687 759 
Q 2956 1122 2956 1747 
Q 2956 2369 2687 2733 
Q 2419 3097 1959 3097 
z
M 1959 3584 
Q 2709 3584 3137 3096 
Q 3566 2609 3566 1747 
Q 3566 888 3137 398 
Q 2709 -91 1959 -91 
Q 1206 -91 779 398 
Q 353 888 353 1747 
Q 353 2609 779 3096 
Q 1206 3584 1959 3584 
z
" transform="scale(0.015625)"/>
      <path id="DejaVuSans-6e" d="M 3513 2113 
L 3513 0 
L 2938 0 
L 2938 2094 
Q 2938 2591 2744 2837 
Q 2550 3084 2163 3084 
Q 1697 3084 1428 2787 
Q 1159 2491 1159 1978 
L 1159 0 
L 581 0 
L 581 3500 
L 1159 3500 
L 1159 2956 
Q 1366 3272 1645 3428 
Q 1925 3584 2291 3584 
Q 2894 3584 3203 3211 
Q 3513 2838 3513 2113 
z
" transform="scale(0.015625)"/>
      <path id="DejaVuSans-75" d="M 544 1381 
L 544 3500 
L 1119 3500 
L 1119 1403 
Q 1119 906 1312 657 
Q 1506 409 1894 409 
Q 2359 409 2629 706 
Q 2900 1003 2900 1516 
L 2900 3500 
L 3475 3500 
L 3475 0 
L 2900 0 
L 2900 538 
Q 2691 219 2414 64 
Q 2138 -91 1772 -91 
Q 1169 -91 856 284 
Q 544 659 544 1381 
z
M 1991 3584 
L 1991 3584 
z
" transform="scale(0.015625)"/>
     </defs>
     <use xlink:href="#DejaVuSans-52"/>
     <use xlink:href="#DejaVuSans-65" x="64.982422"/>
     <use xlink:href="#DejaVuSans-6c" x="126.505859"/>
     <use xlink:href="#DejaVuSans-61" x="154.289062"/>
     <use xlink:href="#DejaVuSans-74" x="215.568359"/>
     <use xlink:href="#DejaVuSans-69" x="254.777344"/>
     <use xlink:href="#DejaVuSans-6f" x="282.560547"/>
     <use xlink:href="#DejaVuSans-6e" x="343.742188"/>
     <use xlink:href="#DejaVuSans-61" x="407.121094"/>
     <use xlink:href="#DejaVuSans-6c" x="468.400391"/>
     <use xlink:href="#DejaVuSans-20" x="496.183594"/>
     <use xlink:href="#DejaVuSans-52" x="527.970703"/>
     <use xlink:href="#DejaVuSans-65" x="592.953125"/>
     <use xlink:href="#DejaVuSans-63" x="654.476562"/>
     <use xlink:href="#DejaVuSans-75" x="709.457031"/>
     <use xlink:href="#DejaVuSans-72" x="772.835938"/>
     <use xlink:href="#DejaVuSans-73" x="813.949219"/>
     <use xlink:href="#DejaVuSans-69" x="866.048828"/>
     <use xlink:href="#DejaVuSans-6f" x="893.832031"/>
     <use xlink:href="#DejaVuSans-6e" x="955.013672"/>
    </g>
   </g>
   <g id="text_4">
    <!-- Sacrificial Collapse -->
    <g style="fill: #333333" transform="translate(217.884381 220.601473) rotate(-154.285714) scale(0.1 -0.1)">
     <defs>
      <path id="DejaVuSans-53" d="M 3425 4513 
L 3425 3897 
Q 3066 4069 2747 4153 
Q 2428 4238 2131 4238 
Q 1616 4238 1336 4038 
Q 1056 3838 1056 3469 
Q 1056 3159 1242 3001 
Q 1428 2844 1947 2747 
L 2328 2669 
Q 3034 2534 3370 2195 
Q 3706 1856 3706 1288 
Q 3706 609 3251 259 
Q 2797 -91 1919 -91 
Q 1588 -91 1214 -16 
Q 841 59 441 206 
L 441 856 
Q 825 641 1194 531 
Q 1563 422 1919 422 
Q 2459 422 2753 634 
Q 3047 847 3047 1241 
Q 3047 1584 2836 1778 
Q 2625 1972 2144 2069 
L 1759 2144 
Q 1053 2284 737 2584 
Q 422 2884 422 3419 
Q 422 4038 858 4394 
Q 1294 4750 2059 4750 
Q 2388 4750 2728 4690 
Q 3069 4631 3425 4513 
z
" transform="scale(0.015625)"/>
      <path id="DejaVuSans-66" d="M 2375 4863 
L 2375 4384 
L 1825 4384 
Q 1516 4384 1395 4259 
Q 1275 4134 1275 3809 
L 1275 3500 
L 2222 3500 
L 2222 3053 
L 1275 3053 
L 1275 0 
L 697 0 
L 697 3053 
L 147 3053 
L 147 3500 
L 697 3500 
L 697 3744 
Q 697 4328 969 4595 
Q 1241 4863 1831 4863 
L 2375 4863 
z
" transform="scale(0.015625)"/>
      <path id="DejaVuSans-70" d="M 1159 525 
L 1159 -1331 
L 581 -1331 
L 581 3500 
L 1159 3500 
L 1159 2969 
Q 1341 3281 1617 3432 
Q 1894 3584 2278 3584 
Q 2916 3584 3314 3078 
Q 3713 2572 3713 1747 
Q 3713 922 3314 415 
Q 2916 -91 2278 -91 
Q 1894 -91 1617 61 
Q 1341 213 1159 525 
z
M 3116 1747 
Q 3116 2381 2855 2742 
Q 2594 3103 2138 3103 
Q 1681 3103 1420 2742 
Q 1159 2381 1159 1747 
Q 1159 1113 1420 752 
Q 1681 391 2138 391 
Q 2594 391 2855 752 
Q 3116 1113 3116 1747 
z
" transform="scale(0.015625)"/>
     </defs>
     <use xlink:href="#DejaVuSans-53"/>
     <use xlink:href="#DejaVuSans-61" x="63.476562"/>
     <use xlink:href="#DejaVuSans-63" x="124.755859"/>
     <use xlink:href="#DejaVuSans-72" x="179.736328"/>
     <use xlink:href="#DejaVuSans-69" x="220.849609"/>
     <use xlink:href="#DejaVuSans-66" x="248.632812"/>
     <use xlink:href="#DejaVuSans-69" x="283.837891"/>
     <use xlink:href="#DejaVuSans-63" x="311.621094"/>
     <use xlink:href="#DejaVuSans-69" x="366.601562"/>
     <use xlink:href="#DejaVuSans-61" x="394.384766"/>
     <use xlink:href="#DejaVuSans-6c" x="455.664062"/>
     <use xlink:href="#DejaVuSans-20" x="483.447266"/>
     <use xlink:href="#DejaVuSans-43" x="515.234375"/>
     <use xlink:href="#DejaVuSans-6f" x="585.058594"/>
     <use xlink:href="#DejaVuSans-6c" x="646.240234"/>
     <use xlink:href="#DejaVuSans-6c" x="674.023438"/>
     <use xlink:href="#DejaVuSans-61" x="701.806641"/>
     <use xlink:href="#DejaVuSans-70" x="763.085938"/>
     <use xlink:href="#DejaVuSans-73" x="826.5625"/>
     <use xlink:href="#DejaVuSans-65" x="878.662109"/>
    </g>
   </g>
   <g id="text_5">
    <!-- Witness Collapse -->
    <g style="fill: #333333" transform="translate(196.563371 241.460835) rotate(-205.714286) scale(0.1 -0.1)">
     <defs>
      <path id="DejaVuSans-57" d="M 213 4666 
L 850 4666 
L 1831 722 
L 2809 4666 
L 3519 4666 
L 4500 722 
L 5478 4666 
L 6119 4666 
L 4947 0 
L 4153 0 
L 3169 4050 
L 2175 0 
L 1381 0 
L 213 4666 
z
" transform="scale(0.015625)"/>
     </defs>
     <use xlink:href="#DejaVuSans-57"/>
     <use xlink:href="#DejaVuSans-69" x="96.626953"/>
     <use xlink:href="#DejaVuSans-74" x="124.410156"/>
     <use xlink:href="#DejaVuSans-6e" x="163.619141"/>
     <use xlink:href="#DejaVuSans-65" x="226.998047"/>
     <use xlink:href="#DejaVuSans-73" x="288.521484"/>
     <use xlink:href="#DejaVuSans-73" x="340.621094"/>
     <use xlink:href="#DejaVuSans-20" x="392.720703"/>
     <use xlink:href="#DejaVuSans-43" x="424.507812"/>
     <use xlink:href="#DejaVuSans-6f" x="494.332031"/>
     <use xlink:href="#DejaVuSans-6c" x="555.513672"/>
     <use xlink:href="#DejaVuSans-6c" x="583.296875"/>
     <use xlink:href="#DejaVuSans-61" x="611.080078"/>
     <use xlink:href="#DejaVuSans-70" x="672.359375"/>
     <use xlink:href="#DejaVuSans-73" x="735.835938"/>
     <use xlink:href="#DejaVuSans-65" x="787.935547"/>
    </g>
   </g>
   <g id="text_6">
    <!-- Covenantal Resonance -->
    <g style="fill: #333333" transform="translate(217.122174 268.079716) rotate(-257.142857) scale(0.1 -0.1)">
     <defs>
      <path id="DejaVuSans-76" d="M 191 3500 
L 800 3500 
L 1894 563 
L 2988 3500 
L 3597 3500 
L 2284 0 
L 1503 0 
L 191 3500 
z
" transform="scale(0.015625)"/>
     </defs>
     <use xlink:href="#DejaVuSans-43"/>
     <use xlink:href="#DejaVuSans-6f" x="69.824219"/>
     <use xlink:href="#DejaVuSans-76" x="131.005859"/>
     <use xlink:href="#DejaVuSans-65" x="190.185547"/>
     <use xlink:href="#DejaVuSans-6e" x="251.708984"/>
     <use xlink:href="#DejaVuSans-61" x="315.087891"/>
     <use xlink:href="#DejaVuSans-6e" x="376.367188"/>
     <use xlink:href="#DejaVuSans-74" x="439.746094"/>
     <use xlink:href="#DejaVuSans-61" x="478.955078"/>
     <use xlink:href="#DejaVuSans-6c" x="540.234375"/>
     <use xlink:href="#DejaVuSans-20" x="568.017578"/>
     <use xlink:href="#DejaVuSans-52" x="599.804688"/>
     <use xlink:href="#DejaVuSans-65" x="664.787109"/>
     <use xlink:href="#DejaVuSans-73" x="726.310547"/>
     <use xlink:href="#DejaVuSans-6f" x="778.410156"/>
     <use xlink:href="#DejaVuSans-6e" x="839.591797"/>
     <use xlink:href="#DejaVuSans-61" x="902.970703"/>
     <use xlink:href="#DejaVuSans-6e" x="964.25"/>
     <use xlink:href="#DejaVuSans-63" x="1027.628906"/>
     <use xlink:href="#DejaVuSans-65" x="1082.609375"/>
    </g>
   </g>
   <g id="text_7">
    <!-- Embodied Glyph -->
    <g style="fill: #333333" transform="translate(278.710112 295.869009) rotate(-308.571429) scale(0.1 -0.1)">
     <defs>
      <path id="DejaVuSans-45" d="M 628 4666 
L 3578 4666 
L 3578 4134 
L 1259 4134 
L 1259 2753 
L 3481 2753 
L 3481 2222 
L 1259 2222 
L 1259 531 
L 3634 531 
L 3634 0 
L 628 0 
L 628 4666 
z
" transform="scale(0.015625)"/>
      <path id="DejaVuSans-6d" d="M 3328 2828 
Q 3544 3216 3844 3400 
Q 4144 3584 4550 3584 
Q 5097 3584 5394 3201 
Q 5691 2819 5691 2113 
L 5691 0 
L 5113 0 
L 5113 2094 
Q 5113 2597 4934 2840 
Q 4756 3084 4391 3084 
Q 3944 3084 3684 2787 
Q 3425 2491 3425 1978 
L 3425 0 
L 2847 0 
L 2847 2094 
Q 2847 2600 2669 2842 
Q 2491 3084 2119 3084 
Q 1678 3084 1418 2786 
Q 1159 2488 1159 1978 
L 1159 0 
L 581 0 
L 581 3500 
L 1159 3500 
L 1159 2956 
Q 1356 3278 1631 3431 
Q 1906 3584 2284 3584 
Q 2666 3584 2933 3390 
Q 3200 3197 3328 2828 
z
" transform="scale(0.015625)"/>
      <path id="DejaVuSans-62" d="M 3116 1747 
Q 3116 2381 2855 2742 
Q 2594 3103 2138 3103 
Q 1681 3103 1420 2742 
Q 1159 2381 1159 1747 
Q 1159 1113 1420 752 
Q 1681 391 2138 391 
Q 2594 391 2855 752 
Q 3116 1113 3116 1747 
z
M 1159 2969 
Q 1341 3281 1617 3432 
Q 1894 3584 2278 3584 
Q 2916 3584 3314 3078 
Q 3713 2572 3713 1747 
Q 3713 922 3314 415 
Q 2916 -91 2278 -91 
Q 1894 -91 1617 61 
Q 1341 213 1159 525 
L 1159 0 
L 581 0 
L 581 4863 
L 1159 4863 
L 1159 2969 
z
" transform="scale(0.015625)"/>
      <path id="DejaVuSans-64" d="M 2906 2969 
L 2906 4863 
L 3481 4863 
L 3481 0 
L 2906 0 
L 2906 525 
Q 2725 213 2448 61 
Q 2172 -91 1784 -91 
Q 1150 -91 751 415 
Q 353 922 353 1747 
Q 353 2572 751 3078 
Q 1150 3584 1784 3584 
Q 2172 3584 2448 3432 
Q 2725 3281 2906 2969 
z
M 947 1747 
Q 947 1113 1208 752 
Q 1469 391 1925 391 
Q 2381 391 2643 752 
Q 2906 1113 2906 1747 
Q 2906 2381 2643 2742 
Q 2381 3103 1925 3103 
Q 1469 3103 1208 2742 
Q 947 2381 947 1747 
z
" transform="scale(0.015625)"/>
      <path id="DejaVuSans-47" d="M 3809 666 
L 3809 1919 
L 2778 1919 
L 2778 2438 
L 4434 2438 
L 4434 434 
Q 4069 175 3628 42 
Q 3188 -91 2688 -91 
Q 1594 -91 976 548 
Q 359 1188 359 2328 
Q 359 3472 976 4111 
Q 1594 4750 2688 4750 
Q 3144 4750 3555 4637 
Q 3966 4525 4313 4306 
L 4313 3634 
Q 3963 3931 3569 4081 
Q 3175 4231 2741 4231 
Q 1884 4231 1454 3753 
Q 1025 3275 1025 2328 
Q 1025 1384 1454 906 
Q 1884 428 2741 428 
Q 3075 428 3337 486 
Q 3600 544 3809 666 
z
" transform="scale(0.015625)"/>
      <path id="DejaVuSans-79" d="M 2059 -325 
Q 1816 -950 1584 -1140 
Q 1353 -1331 966 -1331 
L 506 -1331 
L 506 -850 
L 844 -850 
Q 1081 -850 1212 -737 
Q 1344 -625 1503 -206 
L 1606 56 
L 191 3500 
L 800 3500 
L 1894 763 
L 2988 3500 
L 3597 3500 
L 2059 -325 
z
" transform="scale(0.015625)"/>
     </defs>
     <use xlink:href="#DejaVuSans-45"/>
     <use xlink:href="#DejaVuSans-6d" x="63.183594"/>
     <use xlink:href="#DejaVuSans-62" x="160.595703"/>
     <use xlink:href="#DejaVuSans-6f" x="224.072266"/>
     <use xlink:href="#DejaVuSans-64" x="285.253906"/>
     <use xlink:href="#DejaVuSans-69" x="348.730469"/>
     <use xlink:href="#DejaVuSans-65" x="376.513672"/>
     <use xlink:href="#DejaVuSans-64" x="438.037109"/>
     <use xlink:href="#DejaVuSans-20" x="501.513672"/>
     <use xlink:href="#DejaVuSans-47" x="533.300781"/>
     <use xlink:href="#DejaVuSans-6c" x="610.791016"/>
     <use xlink:href="#DejaVuSans-79" x="638.574219"/>
     <use xlink:href="#DejaVuSans-70" x="697.753906"/>
     <use xlink:href="#DejaVuSans-68" x="761.230469"/>
    </g>
   </g>
  </g>
 </g>
 <defs>
  <clipPath id="p15d9a940aa">
   <rect x="7.2" y="7.2" width="443.464173" height="443.52"/>
  </clipPath>
 </defs>
</svg>
