<?xml version="1.0" encoding="utf-8" standalone="no"?>
<!DOCTYPE svg PUBLIC "-//W3C//DTD SVG 1.1//EN"
  "http://www.w3.org/Graphics/SVG/1.1/DTD/svg11.dtd">
<svg xmlns:xlink="http://www.w3.org/1999/xlink" width="457.92pt" height="457.92pt" viewBox="0 0 457.92 457.92" xmlns="http://www.w3.org/2000/svg" version="1.1">
 <metadata>
  <rdf:RDF xmlns:dc="http://purl.org/dc/elements/1.1/" xmlns:cc="http://creativecommons.org/ns#" xmlns:rdf="http://www.w3.org/1999/02/22-rdf-syntax-ns#">
   <cc:Work>
    <dc:type rdf:resource="http://purl.org/dc/dcmitype/StillImage"/>
    <dc:date>2025-05-16T11:16:40.388151</dc:date>
    <dc:format>image/svg+xml</dc:format>
    <dc:creator>
     <cc:Agent>
      <dc:title>Matplotlib v3.6.3, https://matplotlib.org/</dc:title>
     </cc:Agent>
    </dc:creator>
   </cc:Work>
  </rdf:RDF>
 </metadata>
 <defs>
  <style type="text/css">*{stroke-linejoin: round; stroke-linecap: butt}</style>
 </defs>
 <g id="figure_1">
  <g id="patch_1">
   <path d="M 0 457.92 
L 457.92 457.92 
L 457.92 0 
L 0 0 
z
" style="fill: #ffffff"/>
  </g>
  <g id="axes_1">
   <g id="patch_2">
    <path d="M 235.903478 228.96 
C 235.903478 228.048191 235.723871 227.145248 235.374937 226.302846 
C 235.026003 225.460444 234.514527 224.694966 233.86978 224.05022 
" clip-path="url(#pe9bf9ac3ec)" style="fill: none; stroke: #000000; stroke-width: 1.2; stroke-linejoin: miter"/>
   </g>
   <g id="patch_3">
    <path d="M 228.96 222.016522 
C 228.048191 222.016522 227.145248 222.196129 226.302846 222.545063 
C 225.460444 222.893997 224.694966 223.405473 224.05022 224.05022 
" clip-path="url(#pe9bf9ac3ec)" style="fill: none; stroke: #000000; stroke-width: 1.2; stroke-linejoin: miter"/>
   </g>
   <g id="patch_4">
    <path d="M 222.016522 228.96 
C 222.016522 229.871809 222.196129 230.774752 222.545063 231.617154 
C 222.893997 232.459556 223.405473 233.225034 224.05022 233.86978 
" clip-path="url(#pe9bf9ac3ec)" style="fill: none; stroke: #000000; stroke-width: 1.2; stroke-linejoin: miter"/>
   </g>
   <g id="patch_5">
    <path d="M 228.96 235.903478 
C 229.871809 235.903478 230.774752 235.723871 231.617154 235.374937 
C 232.459556 235.026003 233.225034 234.514527 233.86978 233.86978 
" clip-path="url(#pe9bf9ac3ec)" style="fill: none; stroke: #000000; stroke-width: 1.2; stroke-linejoin: miter"/>
   </g>
   <g id="patch_6">
    <path d="M 240.194783 228.96 
C 240.194783 227.484662 239.904173 226.023669 239.339586 224.660635 
C 238.774999 223.2976 237.947413 222.05903 236.904191 221.015809 
" clip-path="url(#pe9bf9ac3ec)" style="fill: none; stroke: #000000; stroke-width: 1.2; stroke-linejoin: miter"/>
   </g>
   <g id="patch_7">
    <path d="M 228.96 217.725217 
C 227.484662 217.725217 226.023669 218.015827 224.660635 218.580414 
C 223.2976 219.145001 222.05903 219.972587 221.015809 221.015809 
" clip-path="url(#pe9bf9ac3ec)" style="fill: none; stroke: #000000; stroke-width: 1.2; stroke-linejoin: miter"/>
   </g>
   <g id="patch_8">
    <path d="M 217.725217 228.96 
C 217.725217 230.435338 218.015827 231.896331 218.580414 233.259365 
C 219.145001 234.6224 219.972587 235.86097 221.015809 236.904191 
" clip-path="url(#pe9bf9ac3ec)" style="fill: none; stroke: #000000; stroke-width: 1.2; stroke-linejoin: miter"/>
   </g>
   <g id="patch_9">
    <path d="M 228.96 240.194783 
C 230.435338 240.194783 231.896331 239.904173 233.259365 239.339586 
C 234.6224 238.774999 235.86097 237.947413 236.904191 236.904191 
" clip-path="url(#pe9bf9ac3ec)" style="fill: none; stroke: #000000; stroke-width: 1.2; stroke-linejoin: miter"/>
   </g>
   <g id="patch_10">
    <path d="M 247.138261 228.96 
C 247.138261 226.572853 246.668045 224.208917 245.754523 222.003481 
C 244.841001 219.798044 243.501939 217.793997 241.813971 216.106029 
" clip-path="url(#pe9bf9ac3ec)" style="fill: none; stroke: #000000; stroke-width: 1.2; stroke-linejoin: miter"/>
   </g>
   <g id="patch_11">
    <path d="M 228.96 210.781739 
C 226.572853 210.781739 224.208917 211.251955 222.003481 212.165477 
C 219.798044 213.078999 217.793997 214.418061 216.106029 216.106029 
" clip-path="url(#pe9bf9ac3ec)" style="fill: none; stroke: #000000; stroke-width: 1.2; stroke-linejoin: miter"/>
   </g>
   <g id="patch_12">
    <path d="M 210.781739 228.96 
C 210.781739 231.347147 211.251955 233.711083 212.165477 235.916519 
C 213.078999 238.121956 214.418061 240.126003 216.106029 241.813971 
" clip-path="url(#pe9bf9ac3ec)" style="fill: none; stroke: #000000; stroke-width: 1.2; stroke-linejoin: miter"/>
   </g>
   <g id="patch_13">
    <path d="M 228.96 247.138261 
C 231.347147 247.138261 233.711083 246.668045 235.916519 245.754523 
C 238.121956 244.841001 240.126003 243.501939 241.813971 241.813971 
" clip-path="url(#pe9bf9ac3ec)" style="fill: none; stroke: #000000; stroke-width: 1.2; stroke-linejoin: miter"/>
   </g>
   <g id="patch_14">
    <path d="M 258.373044 228.96 
C 258.373044 225.097515 257.612218 221.272587 256.134109 217.704116 
C 254.656 214.135644 252.489352 210.893027 249.758163 208.161837 
" clip-path="url(#pe9bf9ac3ec)" style="fill: none; stroke: #000000; stroke-width: 1.2; stroke-linejoin: miter"/>
   </g>
   <g id="patch_15">
    <path d="M 228.96 199.546956 
C 225.097515 199.546956 221.272587 200.307782 217.704116 201.785891 
C 214.135644 203.264 210.893027 205.430648 208.161837 208.161837 
" clip-path="url(#pe9bf9ac3ec)" style="fill: none; stroke: #000000; stroke-width: 1.2; stroke-linejoin: miter"/>
   </g>
   <g id="patch_16">
    <path d="M 199.546956 228.96 
C 199.546956 232.822485 200.307782 236.647413 201.785891 240.215884 
C 203.264 243.784356 205.430648 247.026973 208.161837 249.758163 
" clip-path="url(#pe9bf9ac3ec)" style="fill: none; stroke: #000000; stroke-width: 1.2; stroke-linejoin: miter"/>
   </g>
   <g id="patch_17">
    <path d="M 228.96 258.373044 
C 232.822485 258.373044 236.647413 257.612218 240.215884 256.134109 
C 243.784356 254.656 247.026973 252.489352 249.758163 249.758163 
" clip-path="url(#pe9bf9ac3ec)" style="fill: none; stroke: #000000; stroke-width: 1.2; stroke-linejoin: miter"/>
   </g>
   <g id="patch_18">
    <path d="M 276.551304 228.96 
C 276.551304 222.710367 275.320263 216.521504 272.928632 210.747596 
C 270.537001 204.973688 267.031292 199.727024 262.612134 195.307866 
" clip-path="url(#pe9bf9ac3ec)" style="fill: none; stroke: #000000; stroke-width: 1.2; stroke-linejoin: miter"/>
   </g>
   <g id="patch_19">
    <path d="M 228.96 181.368696 
C 222.710367 181.368696 216.521504 182.599737 210.747596 184.991368 
C 204.973688 187.382999 199.727024 190.888708 195.307866 195.307866 
" clip-path="url(#pe9bf9ac3ec)" style="fill: none; stroke: #000000; stroke-width: 1.2; stroke-linejoin: miter"/>
   </g>
   <g id="patch_20">
    <path d="M 181.368696 228.96 
C 181.368696 235.209633 182.599737 241.398496 184.991368 247.172404 
C 187.382999 252.946312 190.888708 258.192976 195.307866 262.612134 
" clip-path="url(#pe9bf9ac3ec)" style="fill: none; stroke: #000000; stroke-width: 1.2; stroke-linejoin: miter"/>
   </g>
   <g id="patch_21">
    <path d="M 228.96 276.551304 
C 235.209633 276.551304 241.398496 275.320263 247.172404 272.928632 
C 252.946312 270.537001 258.192976 267.031292 262.612134 262.612134 
" clip-path="url(#pe9bf9ac3ec)" style="fill: none; stroke: #000000; stroke-width: 1.2; stroke-linejoin: miter"/>
   </g>
   <g id="patch_22">
    <path d="M 305.964348 228.96 
C 305.964348 218.847882 303.972481 208.834091 300.102741 199.491712 
C 296.233001 190.149333 290.560644 181.660051 283.410297 174.509703 
" clip-path="url(#pe9bf9ac3ec)" style="fill: none; stroke: #000000; stroke-width: 1.2; stroke-linejoin: miter"/>
   </g>
   <g id="patch_23">
    <path d="M 228.96 151.955652 
C 218.847882 151.955652 208.834091 153.947519 199.491712 157.817259 
C 190.149333 161.686999 181.660051 167.359356 174.509703 174.509703 
" clip-path="url(#pe9bf9ac3ec)" style="fill: none; stroke: #000000; stroke-width: 1.2; stroke-linejoin: miter"/>
   </g>
   <g id="patch_24">
    <path d="M 151.955652 228.96 
C 151.955652 239.072118 153.947519 249.085909 157.817259 258.428288 
C 161.686999 267.770667 167.359356 276.259949 174.509703 283.410297 
" clip-path="url(#pe9bf9ac3ec)" style="fill: none; stroke: #000000; stroke-width: 1.2; stroke-linejoin: miter"/>
   </g>
   <g id="patch_25">
    <path d="M 228.96 305.964348 
C 239.072118 305.964348 249.085909 303.972481 258.428288 300.102741 
C 267.770667 296.233001 276.259949 290.560644 283.410297 283.410297 
" clip-path="url(#pe9bf9ac3ec)" style="fill: none; stroke: #000000; stroke-width: 1.2; stroke-linejoin: miter"/>
   </g>
   <g id="patch_26">
    <path d="M 353.555652 228.96 
C 353.555652 212.598249 350.332744 196.395595 344.071373 181.279308 
C 337.810002 166.163021 328.631936 152.427075 317.062431 140.857569 
" clip-path="url(#pe9bf9ac3ec)" style="fill: none; stroke: #000000; stroke-width: 1.2; stroke-linejoin: miter"/>
   </g>
   <g id="patch_27">
    <path d="M 228.96 104.364348 
C 212.598249 104.364348 196.395595 107.587256 181.279308 113.848627 
C 166.163021 120.109998 152.427075 129.288064 140.857569 140.857569 
" clip-path="url(#pe9bf9ac3ec)" style="fill: none; stroke: #000000; stroke-width: 1.2; stroke-linejoin: miter"/>
   </g>
   <g id="patch_28">
    <path d="M 104.364348 228.96 
C 104.364348 245.321751 107.587256 261.524405 113.848627 276.640692 
C 120.109998 291.756979 129.288064 305.492925 140.857569 317.062431 
" clip-path="url(#pe9bf9ac3ec)" style="fill: none; stroke: #000000; stroke-width: 1.2; stroke-linejoin: miter"/>
   </g>
   <g id="patch_29">
    <path d="M 228.96 353.555652 
C 245.321751 353.555652 261.524405 350.332744 276.640692 344.071373 
C 291.756979 337.810002 305.492925 328.631936 317.062431 317.062431 
" clip-path="url(#pe9bf9ac3ec)" style="fill: none; stroke: #000000; stroke-width: 1.2; stroke-linejoin: miter"/>
   </g>
   <g id="patch_30">
    <path d="M 430.56 228.96 
C 430.56 202.486131 425.345225 176.269686 415.214114 151.81102 
C 405.083003 127.352354 390.23258 105.127126 371.512727 86.407273 
" clip-path="url(#pe9bf9ac3ec)" style="fill: none; stroke: #000000; stroke-width: 1.2; stroke-linejoin: miter"/>
   </g>
   <g id="patch_31">
    <path d="M 228.96 27.36 
C 202.486131 27.36 176.269686 32.574775 151.81102 42.705886 
C 127.352354 52.836997 105.127126 67.68742 86.407273 86.407273 
" clip-path="url(#pe9bf9ac3ec)" style="fill: none; stroke: #000000; stroke-width: 1.2; stroke-linejoin: miter"/>
   </g>
   <g id="patch_32">
    <path d="M 27.36 228.96 
C 27.36 255.433869 32.574775 281.650314 42.705886 306.10898 
C 52.836997 330.567646 67.68742 352.792874 86.407273 371.512727 
" clip-path="url(#pe9bf9ac3ec)" style="fill: none; stroke: #000000; stroke-width: 1.2; stroke-linejoin: miter"/>
   </g>
   <g id="patch_33">
    <path d="M 228.96 430.56 
C 255.433869 430.56 281.650314 425.345225 306.10898 415.214114 
C 330.567646 405.083003 352.792874 390.23258 371.512727 371.512727 
" clip-path="url(#pe9bf9ac3ec)" style="fill: none; stroke: #000000; stroke-width: 1.2; stroke-linejoin: miter"/>
   </g>
   <g id="line2d_1">
    <path d="M 222.016522 228.96 
L 235.903478 228.96 
" clip-path="url(#pe9bf9ac3ec)" style="fill: none; stroke: #000000; stroke-width: 1.5; stroke-linecap: square"/>
   </g>
   <g id="line2d_2">
    <path d="M 228.96 235.903478 
L 228.96 222.016522 
" clip-path="url(#pe9bf9ac3ec)" style="fill: none; stroke: #000000; stroke-width: 1.5; stroke-linecap: square"/>
   </g>
   <g id="text_1">
    <!-- Sacrificial Collapse -->
    <g style="fill: #333333" transform="translate(199.439916 191.997684) rotate(-315) scale(0.1 -0.1)">
     <defs>
      <path id="DejaVuSans-53" d="M 3425 4513 
L 3425 3897 
Q 3066 4069 2747 4153 
Q 2428 4238 2131 4238 
Q 1616 4238 1336 4038 
Q 1056 3838 1056 3469 
Q 1056 3159 1242 3001 
Q 1428 2844 1947 2747 
L 2328 2669 
Q 3034 2534 3370 2195 
Q 3706 1856 3706 1288 
Q 3706 609 3251 259 
Q 2797 -91 1919 -91 
Q 1588 -91 1214 -16 
Q 841 59 441 206 
L 441 856 
Q 825 641 1194 531 
Q 1563 422 1919 422 
Q 2459 422 2753 634 
Q 3047 847 3047 1241 
Q 3047 1584 2836 1778 
Q 2625 1972 2144 2069 
L 1759 2144 
Q 1053 2284 737 2584 
Q 422 2884 422 3419 
Q 422 4038 858 4394 
Q 1294 4750 2059 4750 
Q 2388 4750 2728 4690 
Q 3069 4631 3425 4513 
z
" transform="scale(0.015625)"/>
      <path id="DejaVuSans-61" d="M 2194 1759 
Q 1497 1759 1228 1600 
Q 959 1441 959 1056 
Q 959 750 1161 570 
Q 1363 391 1709 391 
Q 2188 391 2477 730 
Q 2766 1069 2766 1631 
L 2766 1759 
L 2194 1759 
z
M 3341 1997 
L 3341 0 
L 2766 0 
L 2766 531 
Q 2569 213 2275 61 
Q 1981 -91 1556 -91 
Q 1019 -91 701 211 
Q 384 513 384 1019 
Q 384 1609 779 1909 
Q 1175 2209 1959 2209 
L 2766 2209 
L 2766 2266 
Q 2766 2663 2505 2880 
Q 2244 3097 1772 3097 
Q 1472 3097 1187 3025 
Q 903 2953 641 2809 
L 641 3341 
Q 956 3463 1253 3523 
Q 1550 3584 1831 3584 
Q 2591 3584 2966 3190 
Q 3341 2797 3341 1997 
z
" transform="scale(0.015625)"/>
      <path id="DejaVuSans-63" d="M 3122 3366 
L 3122 2828 
Q 2878 2963 2633 3030 
Q 2388 3097 2138 3097 
Q 1578 3097 1268 2742 
Q 959 2388 959 1747 
Q 959 1106 1268 751 
Q 1578 397 2138 397 
Q 2388 397 2633 464 
Q 2878 531 3122 666 
L 3122 134 
Q 2881 22 2623 -34 
Q 2366 -91 2075 -91 
Q 1284 -91 818 406 
Q 353 903 353 1747 
Q 353 2603 823 3093 
Q 1294 3584 2113 3584 
Q 2378 3584 2631 3529 
Q 2884 3475 3122 3366 
z
" transform="scale(0.015625)"/>
      <path id="DejaVuSans-72" d="M 2631 2963 
Q 2534 3019 2420 3045 
Q 2306 3072 2169 3072 
Q 1681 3072 1420 2755 
Q 1159 2438 1159 1844 
L 1159 0 
L 581 0 
L 581 3500 
L 1159 3500 
L 1159 2956 
Q 1341 3275 1631 3429 
Q 1922 3584 2338 3584 
Q 2397 3584 2469 3576 
Q 2541 3569 2628 3553 
L 2631 2963 
z
" transform="scale(0.015625)"/>
      <path id="DejaVuSans-69" d="M 603 3500 
L 1178 3500 
L 1178 0 
L 603 0 
L 603 3500 
z
M 603 4863 
L 1178 4863 
L 1178 4134 
L 603 4134 
L 603 4863 
z
" transform="scale(0.015625)"/>
      <path id="DejaVuSans-66" d="M 2375 4863 
L 2375 4384 
L 1825 4384 
Q 1516 4384 1395 4259 
Q 1275 4134 1275 3809 
L 1275 3500 
L 2222 3500 
L 2222 3053 
L 1275 3053 
L 1275 0 
L 697 0 
L 697 3053 
L 147 3053 
L 147 3500 
L 697 3500 
L 697 3744 
Q 697 4328 969 4595 
Q 1241 4863 1831 4863 
L 2375 4863 
z
" transform="scale(0.015625)"/>
      <path id="DejaVuSans-6c" d="M 603 4863 
L 1178 4863 
L 1178 0 
L 603 0 
L 603 4863 
z
" transform="scale(0.015625)"/>
      <path id="DejaVuSans-20" transform="scale(0.015625)"/>
      <path id="DejaVuSans-43" d="M 4122 4306 
L 4122 3641 
Q 3803 3938 3442 4084 
Q 3081 4231 2675 4231 
Q 1875 4231 1450 3742 
Q 1025 3253 1025 2328 
Q 1025 1406 1450 917 
Q 1875 428 2675 428 
Q 3081 428 3442 575 
Q 3803 722 4122 1019 
L 4122 359 
Q 3791 134 3420 21 
Q 3050 -91 2638 -91 
Q 1578 -91 968 557 
Q 359 1206 359 2328 
Q 359 3453 968 4101 
Q 1578 4750 2638 4750 
Q 3056 4750 3426 4639 
Q 3797 4528 4122 4306 
z
" transform="scale(0.015625)"/>
      <path id="DejaVuSans-6f" d="M 1959 3097 
Q 1497 3097 1228 2736 
Q 959 2375 959 1747 
Q 959 1119 1226 758 
Q 1494 397 1959 397 
Q 2419 397 2687 759 
Q 2956 1122 2956 1747 
Q 2956 2369 2687 2733 
Q 2419 3097 1959 3097 
z
M 1959 3584 
Q 2709 3584 3137 3096 
Q 3566 2609 3566 1747 
Q 3566 888 3137 398 
Q 2709 -91 1959 -91 
Q 1206 -91 779 398 
Q 353 888 353 1747 
Q 353 2609 779 3096 
Q 1206 3584 1959 3584 
z
" transform="scale(0.015625)"/>
      <path id="DejaVuSans-70" d="M 1159 525 
L 1159 -1331 
L 581 -1331 
L 581 3500 
L 1159 3500 
L 1159 2969 
Q 1341 3281 1617 3432 
Q 1894 3584 2278 3584 
Q 2916 3584 3314 3078 
Q 3713 2572 3713 1747 
Q 3713 922 3314 415 
Q 2916 -91 2278 -91 
Q 1894 -91 1617 61 
Q 1341 213 1159 525 
z
M 3116 1747 
Q 3116 2381 2855 2742 
Q 2594 3103 2138 3103 
Q 1681 3103 1420 2742 
Q 1159 2381 1159 1747 
Q 1159 1113 1420 752 
Q 1681 391 2138 391 
Q 2594 391 2855 752 
Q 3116 1113 3116 1747 
z
" transform="scale(0.015625)"/>
      <path id="DejaVuSans-73" d="M 2834 3397 
L 2834 2853 
Q 2591 2978 2328 3040 
Q 2066 3103 1784 3103 
Q 1356 3103 1142 2972 
Q 928 2841 928 2578 
Q 928 2378 1081 2264 
Q 1234 2150 1697 2047 
L 1894 2003 
Q 2506 1872 2764 1633 
Q 3022 1394 3022 966 
Q 3022 478 2636 193 
Q 2250 -91 1575 -91 
Q 1294 -91 989 -36 
Q 684 19 347 128 
L 347 722 
Q 666 556 975 473 
Q 1284 391 1588 391 
Q 1994 391 2212 530 
Q 2431 669 2431 922 
Q 2431 1156 2273 1281 
Q 2116 1406 1581 1522 
L 1381 1569 
Q 847 1681 609 1914 
Q 372 2147 372 2553 
Q 372 3047 722 3315 
Q 1072 3584 1716 3584 
Q 2034 3584 2315 3537 
Q 2597 3491 2834 3397 
z
" transform="scale(0.015625)"/>
      <path id="DejaVuSans-65" d="M 3597 1894 
L 3597 1613 
L 953 1613 
Q 991 1019 1311 708 
Q 1631 397 2203 397 
Q 2534 397 2845 478 
Q 3156 559 3463 722 
L 3463 178 
Q 3153 47 2828 -22 
Q 2503 -91 2169 -91 
Q 1331 -91 842 396 
Q 353 884 353 1716 
Q 353 2575 817 3079 
Q 1281 3584 2069 3584 
Q 2775 3584 3186 3129 
Q 3597 2675 3597 1894 
z
M 3022 2063 
Q 3016 2534 2758 2815 
Q 2500 3097 2075 3097 
Q 1594 3097 1305 2825 
Q 1016 2553 972 2059 
L 3022 2063 
z
" transform="scale(0.015625)"/>
     </defs>
     <use xlink:href="#DejaVuSans-53"/>
     <use xlink:href="#DejaVuSans-61" x="63.476562"/>
     <use xlink:href="#DejaVuSans-63" x="124.755859"/>
     <use xlink:href="#DejaVuSans-72" x="179.736328"/>
     <use xlink:href="#DejaVuSans-69" x="220.849609"/>
     <use xlink:href="#DejaVuSans-66" x="248.632812"/>
     <use xlink:href="#DejaVuSans-69" x="283.837891"/>
     <use xlink:href="#DejaVuSans-63" x="311.621094"/>
     <use xlink:href="#DejaVuSans-69" x="366.601562"/>
     <use xlink:href="#DejaVuSans-61" x="394.384766"/>
     <use xlink:href="#DejaVuSans-6c" x="455.664062"/>
     <use xlink:href="#DejaVuSans-20" x="483.447266"/>
     <use xlink:href="#DejaVuSans-43" x="515.234375"/>
     <use xlink:href="#DejaVuSans-6f" x="585.058594"/>
     <use xlink:href="#DejaVuSans-6c" x="646.240234"/>
     <use xlink:href="#DejaVuSans-6c" x="674.023438"/>
     <use xlink:href="#DejaVuSans-61" x="701.806641"/>
     <use xlink:href="#DejaVuSans-70" x="763.085938"/>
     <use xlink:href="#DejaVuSans-73" x="826.5625"/>
     <use xlink:href="#DejaVuSans-65" x="878.662109"/>
    </g>
   </g>
   <g id="text_2">
    <!-- Witnessing -->
    <g style="fill: #333333" transform="translate(202.381693 241.08474) rotate(-45) scale(0.1 -0.1)">
     <defs>
      <path id="DejaVuSans-57" d="M 213 4666 
L 850 4666 
L 1831 722 
L 2809 4666 
L 3519 4666 
L 4500 722 
L 5478 4666 
L 6119 4666 
L 4947 0 
L 4153 0 
L 3169 4050 
L 2175 0 
L 1381 0 
L 213 4666 
z
" transform="scale(0.015625)"/>
      <path id="DejaVuSans-74" d="M 1172 4494 
L 1172 3500 
L 2356 3500 
L 2356 3053 
L 1172 3053 
L 1172 1153 
Q 1172 725 1289 603 
Q 1406 481 1766 481 
L 2356 481 
L 2356 0 
L 1766 0 
Q 1100 0 847 248 
Q 594 497 594 1153 
L 594 3053 
L 172 3053 
L 172 3500 
L 594 3500 
L 594 4494 
L 1172 4494 
z
" transform="scale(0.015625)"/>
      <path id="DejaVuSans-6e" d="M 3513 2113 
L 3513 0 
L 2938 0 
L 2938 2094 
Q 2938 2591 2744 2837 
Q 2550 3084 2163 3084 
Q 1697 3084 1428 2787 
Q 1159 2491 1159 1978 
L 1159 0 
L 581 0 
L 581 3500 
L 1159 3500 
L 1159 2956 
Q 1366 3272 1645 3428 
Q 1925 3584 2291 3584 
Q 2894 3584 3203 3211 
Q 3513 2838 3513 2113 
z
" transform="scale(0.015625)"/>
      <path id="DejaVuSans-67" d="M 2906 1791 
Q 2906 2416 2648 2759 
Q 2391 3103 1925 3103 
Q 1463 3103 1205 2759 
Q 947 2416 947 1791 
Q 947 1169 1205 825 
Q 1463 481 1925 481 
Q 2391 481 2648 825 
Q 2906 1169 2906 1791 
z
M 3481 434 
Q 3481 -459 3084 -895 
Q 2688 -1331 1869 -1331 
Q 1566 -1331 1297 -1286 
Q 1028 -1241 775 -1147 
L 775 -588 
Q 1028 -725 1275 -790 
Q 1522 -856 1778 -856 
Q 2344 -856 2625 -561 
Q 2906 -266 2906 331 
L 2906 616 
Q 2728 306 2450 153 
Q 2172 0 1784 0 
Q 1141 0 747 490 
Q 353 981 353 1791 
Q 353 2603 747 3093 
Q 1141 3584 1784 3584 
Q 2172 3584 2450 3431 
Q 2728 3278 2906 2969 
L 2906 3500 
L 3481 3500 
L 3481 434 
z
" transform="scale(0.015625)"/>
     </defs>
     <use xlink:href="#DejaVuSans-57"/>
     <use xlink:href="#DejaVuSans-69" x="96.626953"/>
     <use xlink:href="#DejaVuSans-74" x="124.410156"/>
     <use xlink:href="#DejaVuSans-6e" x="163.619141"/>
     <use xlink:href="#DejaVuSans-65" x="226.998047"/>
     <use xlink:href="#DejaVuSans-73" x="288.521484"/>
     <use xlink:href="#DejaVuSans-73" x="340.621094"/>
     <use xlink:href="#DejaVuSans-69" x="392.720703"/>
     <use xlink:href="#DejaVuSans-6e" x="420.503906"/>
     <use xlink:href="#DejaVuSans-67" x="483.882812"/>
    </g>
   </g>
   <g id="text_3">
    <!-- Relational Recursion -->
    <g style="fill: #333333" transform="translate(252.066474 277.864618) rotate(-135) scale(0.1 -0.1)">
     <defs>
      <path id="DejaVuSans-52" d="M 2841 2188 
Q 3044 2119 3236 1894 
Q 3428 1669 3622 1275 
L 4263 0 
L 3584 0 
L 2988 1197 
Q 2756 1666 2539 1819 
Q 2322 1972 1947 1972 
L 1259 1972 
L 1259 0 
L 628 0 
L 628 4666 
L 2053 4666 
Q 2853 4666 3247 4331 
Q 3641 3997 3641 3322 
Q 3641 2881 3436 2590 
Q 3231 2300 2841 2188 
z
M 1259 4147 
L 1259 2491 
L 2053 2491 
Q 2509 2491 2742 2702 
Q 2975 2913 2975 3322 
Q 2975 3731 2742 3939 
Q 2509 4147 2053 4147 
L 1259 4147 
z
" transform="scale(0.015625)"/>
      <path id="DejaVuSans-75" d="M 544 1381 
L 544 3500 
L 1119 3500 
L 1119 1403 
Q 1119 906 1312 657 
Q 1506 409 1894 409 
Q 2359 409 2629 706 
Q 2900 1003 2900 1516 
L 2900 3500 
L 3475 3500 
L 3475 0 
L 2900 0 
L 2900 538 
Q 2691 219 2414 64 
Q 2138 -91 1772 -91 
Q 1169 -91 856 284 
Q 544 659 544 1381 
z
M 1991 3584 
L 1991 3584 
z
" transform="scale(0.015625)"/>
     </defs>
     <use xlink:href="#DejaVuSans-52"/>
     <use xlink:href="#DejaVuSans-65" x="64.982422"/>
     <use xlink:href="#DejaVuSans-6c" x="126.505859"/>
     <use xlink:href="#DejaVuSans-61" x="154.289062"/>
     <use xlink:href="#DejaVuSans-74" x="215.568359"/>
     <use xlink:href="#DejaVuSans-69" x="254.777344"/>
     <use xlink:href="#DejaVuSans-6f" x="282.560547"/>
     <use xlink:href="#DejaVuSans-6e" x="343.742188"/>
     <use xlink:href="#DejaVuSans-61" x="407.121094"/>
     <use xlink:href="#DejaVuSans-6c" x="468.400391"/>
     <use xlink:href="#DejaVuSans-20" x="496.183594"/>
     <use xlink:href="#DejaVuSans-52" x="527.970703"/>
     <use xlink:href="#DejaVuSans-65" x="592.953125"/>
     <use xlink:href="#DejaVuSans-63" x="654.476562"/>
     <use xlink:href="#DejaVuSans-75" x="709.457031"/>
     <use xlink:href="#DejaVuSans-72" x="772.835938"/>
     <use xlink:href="#DejaVuSans-73" x="813.949219"/>
     <use xlink:href="#DejaVuSans-69" x="866.048828"/>
     <use xlink:href="#DejaVuSans-6f" x="893.832031"/>
     <use xlink:href="#DejaVuSans-6e" x="955.013672"/>
    </g>
   </g>
   <g id="text_4">
    <!-- Fractal Christ -->
    <g style="fill: #333333" transform="translate(274.40967 227.664387) rotate(-225) scale(0.1 -0.1)">
     <defs>
      <path id="DejaVuSans-46" d="M 628 4666 
L 3309 4666 
L 3309 4134 
L 1259 4134 
L 1259 2759 
L 3109 2759 
L 3109 2228 
L 1259 2228 
L 1259 0 
L 628 0 
L 628 4666 
z
" transform="scale(0.015625)"/>
      <path id="DejaVuSans-68" d="M 3513 2113 
L 3513 0 
L 2938 0 
L 2938 2094 
Q 2938 2591 2744 2837 
Q 2550 3084 2163 3084 
Q 1697 3084 1428 2787 
Q 1159 2491 1159 1978 
L 1159 0 
L 581 0 
L 581 4863 
L 1159 4863 
L 1159 2956 
Q 1366 3272 1645 3428 
Q 1925 3584 2291 3584 
Q 2894 3584 3203 3211 
Q 3513 2838 3513 2113 
z
" transform="scale(0.015625)"/>
     </defs>
     <use xlink:href="#DejaVuSans-46"/>
     <use xlink:href="#DejaVuSans-72" x="50.269531"/>
     <use xlink:href="#DejaVuSans-61" x="91.382812"/>
     <use xlink:href="#DejaVuSans-63" x="152.662109"/>
     <use xlink:href="#DejaVuSans-74" x="207.642578"/>
     <use xlink:href="#DejaVuSans-61" x="246.851562"/>
     <use xlink:href="#DejaVuSans-6c" x="308.130859"/>
     <use xlink:href="#DejaVuSans-20" x="335.914062"/>
     <use xlink:href="#DejaVuSans-43" x="367.701172"/>
     <use xlink:href="#DejaVuSans-68" x="437.525391"/>
     <use xlink:href="#DejaVuSans-72" x="500.904297"/>
     <use xlink:href="#DejaVuSans-69" x="542.017578"/>
     <use xlink:href="#DejaVuSans-73" x="569.800781"/>
     <use xlink:href="#DejaVuSans-74" x="621.900391"/>
    </g>
   </g>
  </g>
 </g>
 <defs>
  <clipPath id="pe9bf9ac3ec">
   <rect x="7.2" y="7.2" width="443.52" height="443.52"/>
  </clipPath>
 </defs>
</svg>
