<?xml version="1.0" encoding="utf-8" ?>
<svg baseProfile="tiny" height="800px" version="1.2" width="800px" xmlns="http://www.w3.org/2000/svg" xmlns:ev="http://www.w3.org/2001/xml-events" xmlns:xlink="http://www.w3.org/1999/xlink"><defs /><path d="M 420.0 400.0 L 420.05690408105255 401.2682313653333 L 420.0335495260263 402.5436794847072 L 419.92925035703325 403.8212755652788 L 419.7436400645415 405.0958928935218 L 419.4766761891696 406.36236692841936 L 419.1286436423757 407.61551574236563 L 418.70015674040536 408.85016073079584 L 418.19215993079615 410.061147509715 L 417.605927195804 411.24336691875345 L 416.94306012229606 412.3917760461505 L 416.20548463292425 413.50141919116743 L 415.3954463787391 414.5674486788614 L 414.51550479879717 415.5851454419201 L 413.56852585774044 416.54993928436625 L 412.5576734777593 417.45742874239494 L 411.486399686771 418.30340045840666 L 410.35843351002956 419.08384798544364 L 409.1777686377116 419.79498994072844 L 407.9486499062693 420.43328742883546 L 406.67555863648954 420.9954606571956 L 405.3631968762218 421.47850466914014 L 404.01647060061606 421.87970412251326 L 402.64047192742703 422.1966470450349 L 401.24046040946854 422.42723750104443 L 399.8218434706225 422.56970710800874 L 398.39015605590504 422.62262534521426 L 396.951039569942 422.5849086013679 L 395.5102201817981 422.4558279123957 L 394.0734865774126 422.235015345533 L 392.6466672439111 421.9224689908246 L 391.23560737276773 421.5185565263907 L 389.84614547117263 421.0240173292286 L 388.4840897730055 420.43996310891174 L 387.15519454250915 419.767877047273 L 385.86513636509613 419.00961143302 L 384.61949052069104 418.1673837861834 L 383.4237075356048 417.2437714733342 L 382.2830900091515 416.24170482059856 L 381.2027698110471 415.16445873761666 L 380.187685745068 414.01564287172187 L 379.24256177349656 412.79919031772346 L 378.37188589554205 411.5193449147448 L 377.57988977119277 410.1806471675658 L 376.8705291798445 408.7879188358252 L 376.2474654005521 407.34624624022695 L 375.7140475978837 405.8609623405421 L 375.2732962941216 404.3376276456779 L 374.92788800496027 402.78201002137934 L 374.68014111191485 401.2000634662037 L 374.532003040383 399.59790593125706 L 374.4850388077109 397.9817962637632 L 374.5404210007204 396.35811035884774 L 374.6989212369731 394.73331660792815 L 374.96090315859595 393.11395073579524 L 375.32631700179337 391.50659012182786 L 375.79469577924016 389.91782770379103 L 376.36515310641346 388.3542455653045 L 377.0363826966011 386.82238831032623 L 377.80665954283785 385.3287363298588 L 378.6738427984052 383.8796790675427 L 379.6353803607973 382.4814883918415 L 380.6883151572407 381.14029218314204 L 381.829293122981 379.8620482442792 L 383.0545728566441 378.6525186427466 L 384.3600369300691 377.5172445921669 L 385.7412048231261 376.4615219794693 L 387.1932474471956 375.49037764265387 L 388.7110032142343 374.608546502018 L 390.28899560170646 373.82044964528075 L 391.9214521571462 373.13017346417524 L 393.6023248797742 372.5414499367895 L 395.32531191043165 372.0576381462363 L 397.0838804551562 371.68170712213293 L 398.87129086202947 371.41622008688176 L 400.68062176549586 371.2633201838779 L 402.50479620721865 371.22471775955256 L 404.33660863772104 371.30167926559466 L 406.16875269858014 371.4950178418142 L 407.9938496808216 371.80508563392385 L 409.8044775514267 372.2317678940549 L 411.59320043652065 372.77447890510405 L 413.35259844689 373.4321597630595 L 415.0752977289868 374.20327804430013 L 416.7540006225299 375.0858293775292 L 418.3815158042329 376.07734093252157 L 419.9507882960701 377.17487683025803 L 421.4549292158562 378.3750454713238 L 422.8872451477687 379.6740087716886 L 424.24126701077824 381.06749328719576 L 425.51077830379614 382.55080320029447 L 426.6898426076748 384.11883513479177 L 427.7728302260304 385.7660947566999 L 428.75444384917915 387.4867151116533 L 429.6297431282875 389.2744766418895 L 430.3941680501329 391.1228288184676 L 431.04356100663796 393.0249133172655 L 431.57418745757013 394.9735886603811 L 431.98275508948143 396.96145623789755 L 432.26643137907797 398.9808876185842 L 432.4228594747471 401.0240530520225 L 432.4501723159054 403.0829510588996 L 432.34700491615286 405.1494390008215 L 432.112504742895 407.21526451599806 L 431.7463401331113 409.2720977025574 L 431.2487066922732 411.3115639270846 L 430.6203316310283 413.3252771322735 L 429.8624760021323 415.30487351434147 L 428.9769348082078 417.2420454381102 L 427.9660349592012 419.1285754554156 L 426.83263106686786 420.9563702907857 L 425.58009907220634 422.7174946571362 L 424.21232771045464 424.4042047635855 L 422.7337078270202 426.0089813773863 L 421.14911956650235 427.5245623024334 L 419.46391746575165 428.94397413781417 L 417.68391349065666 430.26056318144646 L 415.81535806501864 431.4680253459796 L 413.8649191484353 432.5604349568238 L 411.8396594285289 433.532272305411 L 409.74701170108574 434.3784498345744 L 407.59475251969144 435.09433683724615 L 405.39097420421086 435.67578255451053 L 403.1440553049423 436.1191375643894 L 400.86262962644037 436.42127335856856 L 398.5555539218137 436.57960001057603 L 396.23187437474036 436.5920818456752 L 393.90079199246424 436.45725102991304 L 391.57162703862514 436.1742190033485 L 389.25378263989427 435.74268569044034 L 386.95670770501766 435.1629464288798 L 384.68985929898844 434.43589656677625 L 382.46266461865173 433.5630336870095 L 380.2844827190723 432.5464574267245 L 378.16456614245214 431.38886686932153 L 376.1120226032526 430.0935554958554 L 374.13577688444224 428.6644036924638 L 372.244533100448 427.10586882025933 L 370.44673748241973 425.42297286400265 L 368.7505418408291 423.6212876857889 L 367.16376785919834 421.7069179198843 L 365.6938723709027 419.6864815547035 L 364.347913768506 417.5670882576876 L 363.13251969197665 415.3563155084738 L 362.0538561384041 413.06218261521985 L 361.11759813149087 410.69312269819665 L 360.32890208415824 408.25795273377594 L 359.6923799820752 405.76584176065666 L 359.2120755098278 403.2262773585675 L 358.89144223480014 400.6490305177189 L 358.73332395666745 398.04411902490614 L 358.73993732272413 395.42176949936925 L 358.91285680111434 392.79237821824813 L 359.25300209542786 390.16647087770656 L 359.76062807509794 387.55466144150887 L 360.43531728662555 384.96761023398227 L 361.2759751008875 382.4159814388713 L 362.2808275417018 379.9104001695497 L 363.44742183046026 377.46140927939496 L 364.77262967103235 375.0794260838159 L 366.2526532883395 372.7746991674454 L 367.8830342230341 370.5572654513574 L 369.65866487363587 368.436907695815 L 371.5738027663261 366.42311261401056 L 373.62208752141476 364.5250297715006 L 375.7965604743332 362.7514314445717 L 378.0896868978953 361.1106736085934 L 380.4933807615761 359.6106582245226 L 382.9990319527072 358.2587969881309 L 385.59753587384023 357.06197670222974 L 388.27932532012284 356.026526427187 L 391.0344045304089 355.1581865593751 L 393.8523852960357 354.46207998087544 L 396.72252500178064 353.9426854168113 L 399.63376646450433 353.6038131291142 L 402.574779426441 353.44858306736506 L 405.5340035520334 353.4794055886242 L 408.49969276968966 353.6979648489021 L 411.4599607928734 354.10520495915614 L 414.4028276485812 354.701318988462 L 417.3162670355292 355.4857408863403 L 420.1882543293008 356.4571403851577 L 423.00681504732637 357.6134209321058 L 425.7600735828912 358.95172068853685 L 428.43630201443307 360.46841662244225 L 431.0239687942016 362.1591317076494 L 433.5117871189336 364.0187452309254 L 435.88876278456456 366.041406195668 L 438.1442413271463 368.2205497982739 L 440.2679542530984 370.5489169406661 L 442.2500641636745 373.0185767298707 L 444.08120858108225 375.6209519030226 L 445.7525422870596 378.34684710379423 L 447.25577798885905 381.1864799240311 L 448.5832251325365 384.1295146124016 L 449.7278266891541 387.1650983401662 L 450.68319374597684 390.2818999028006 L 451.4436377419588 393.4681507252158 L 452.00420019473967 396.7116880277478 L 452.3606797749979 400.0" fill="none" stroke="black" stroke-width="1" /><path d="M 460.0 400.0 L 459.9771782143123 403.79245661784023 L 459.7149638697567 407.5820676874159 L 459.2136231536325 411.3537422248676 L 458.4743722804818 415.09241138833414 L 457.4993757646809 418.7830882033861 L 456.2917409434849 422.4109271590275 L 454.8555087599583 425.9612834392042 L 453.19564082993986 429.41977155542855 L 451.31800283185805 432.772323147725 L 449.2293442727755 436.0052437236116 L 446.9372746984431 439.1052681082517 L 444.45023642932466 442.05961438322873 L 441.7774739184625 444.85603609660313 L 438.92899984062996 447.4828725329798 L 435.91555803541155 449.92909683923574 L 432.74858343960705 452.1843618092986 L 429.44015915662516 454.23904313990204 L 426.00297082226297 456.0842799785477 L 422.4502584374142 457.71201259493284 L 418.79576584876446 459.1150170178292 L 415.05368806837316 460.28693649077957 L 411.2386166321721 461.22230961196806 L 407.36548320578333 461.91659503618166 L 403.44950165364884 462.3661926298596 L 399.50610879423397 462.56846098377497 L 395.55090406998437 462.5217312018678 L 391.5995883657628 462.2253168990796 L 387.66790221363897 461.67952035569186 L 383.77156362513676 460.8856347905738 L 379.9262057943416 459.84594273084497 L 376.1473149166247 458.56371047070434 L 372.4501683681409 457.0431786274987 L 368.84977349070175 455.28954881845016 L 365.3608072251063 453.30896649676805 L 361.99755683354186 451.10850000108314 L 358.77386194824265 448.69611588719016 L 355.70305817923156 446.0806506259229 L 352.79792250868036 443.2717787655429 L 350.0706206932259 440.279977671251 L 347.532656888492 437.1164889682654 L 345.19482570211676 433.79327682830217 L 343.06716687280016 430.3229832521849 L 341.1589227632943 426.7188805136512 L 339.47849884490057 422.99482094116235 L 338.03342733994424 419.16518422561376 L 336.8303341769134 415.2448224522368 L 335.8749094005172 411.2490030646419 L 335.17188116588477 407.19334997783034 L 334.7249934325371 403.093783065066 L 334.5369874596767 398.9664562507116 L 334.6095871897992 394.8276944474642 L 334.94348859269815 390.69392958184966 L 335.5383530266645 386.5816359563221 L 336.39280465813147 382.5072651998481 L 337.5044319652467 378.48718106141934 L 338.8697933349257 374.5375943025106 L 340.4844267469149 370.6744979450814 L 342.34286352233255 366.9136031312989 L 344.4386460981211 363.2702758497345 L 346.7643497729044 359.7594747803581 L 349.31160835394746 356.39569050723406 L 352.07114361934583 353.1928863434098 L 355.03279849426684 350.1644410071079 L 358.18557382510426 347.323093381991 L 361.51766862084133 344.6808895869964 L 365.016523616803 342.24913257305286 L 368.66886800238166 340.0383344549255 L 372.46076914128275 338.0581717765205 L 376.37768510042713 336.3174438972477 L 380.40451979189953 334.8240346755381 L 384.5256805213106 333.584877613368 L 388.7251377256797 332.6059246127162 L 392.9864866744917 331.8921184813067 L 397.2930108989794 331.4473693108307 L 401.62774710696084 331.2745348361388 L 405.97355133376067 331.3754048687123 L 410.31316607389147 331.75068988211456 L 414.6292881332929 332.4000138111459 L 418.9046369380457 333.3219111101454 L 423.12202303261716 334.5138280993574 L 427.2644164988603 335.9721286115771 L 431.3150150262068 337.6921039344645 L 435.2573113637539 339.6679870270512 L 439.07515988626744 341.89297097210016 L 442.7528420084936 344.35923160921044 L 446.27513018559154 347.05795427692294 L 449.6273502419631 349.97936457567044 L 452.795441776237 353.11276304727136 L 455.7660163966659 356.4465636508686 L 458.52641354867524 359.96833589981776 L 461.06475370475124 363.6648505090987 L 463.36998869623756 367.5221283884193 L 465.4319489768907 371.5254928023597 L 467.2413876191945 375.659624505725 L 468.7900208564072 379.908619649787 L 470.0705649960689 384.25605024335783 L 471.0767695441911 388.68502694169104 L 471.80344639352563 393.17826392610374 L 472.24649494412495 397.71814562799176 L 472.4029230397941 402.2867950426149 L 472.27086361994964 406.8661433706934 L 471.8495870027738 411.4380007195115 L 471.13950873232596 415.9841275899057 L 470.14219293938555 420.486306871238 L 468.86035118318017 424.9264160632491 L 467.2978367587399 429.2864994415672 L 465.45963447233953 433.5488398826221 L 463.3518459052843 437.6960300638033 L 460.9816702040802 441.7110427558923 L 458.35738045275554 445.57729992711285 L 455.4882957006747 449.2787403815535 L 452.3847487365615 452.7998856592388 L 449.05804971654175 456.1259039307214 L 445.52044577076305 459.24267162574455 L 441.7850767294893 462.1368325432432 L 437.8659271254238 464.79585419869534 L 433.7777746443354 467.20808117457455 L 429.53613521077506 469.3627852503508 L 425.1572049097193 471.2502121001085 L 420.6577989583099 472.8616243583529 L 416.0552879544042 474.18934086791444 L 411.36753164038134 475.22677193799063 L 406.6128104314844 475.9684504552297 L 401.8097549679053 476.4100587063076 L 396.97727395876365 476.5484507866271 L 392.1344805940758 476.38167048650143 L 387.3006178077123 475.9089645634332 L 382.4949826801615 475.13079132677007 L 377.7368502746476 474.04882447907755 L 373.0453972037384 472.6659521769128 L 368.43962522603687 470.9862712922737 L 363.93828517383787 469.0150768747379 L 359.55980151274923 466.758846833141 L 355.3221978332243 464.22522187449204 L 351.24302357171285 461.422980756611 L 347.33928225572805 458.36201092963506 L 343.6273615625532 455.0532746599916 L 340.1229654755699 451.50877074861006 L 336.8410488153283 447.74149197297345 L 333.7957544144816 443.7653784000086 L 331.00035319663414 439.59526673373085 L 328.46718740900747 435.24683587791077 L 326.2076172476622 430.7365489097543 L 324.2319711018574 426.08159167562826 L 322.54949963102644 421.2998082341438 L 321.16833387384963 416.409633385382 L 320.0954475740529 411.43002253765474 L 319.336623891916 406.3803791748665 L 318.89642665409383 401.28048019826446 L 318.7781762772897 396.1503994260438 L 318.9839304836486 391.01042954291825 L 319.5144699075099 385.8810027992842 L 320.3692886744576 380.78261076601177 L 321.5465900144901 375.73572345612206 L 323.0432869516816 370.76070812864515 L 324.855008092989 365.8777480927859 L 326.9761085189599 361.10676183210956 L 329.3996857590805 356.46732276881625 L 332.11760081445635 351.9785799872724 L 335.1205041705183 347.65918023381107 L 338.397866722563 343.52719150641303 L 341.93801551726256 339.6000285432264 L 345.7281741938777 335.8943805130038 L 349.7545079898605 332.4261412034375 L 354.0021731569304 329.21034199507665 L 358.4553706155916 326.261087899055 L 363.09740365854435 323.5914969262525 L 367.91073949656413 321.2136430438172 L 372.87707442427063 319.1385029622094 L 377.97740236784693 317.3759069821461 L 383.1920865622498 315.93449411607895 L 388.50093409185655 314.8216716831638 L 393.88327301586 314.0435795601577 L 399.3180317881158 313.6050592533479 L 404.78382067062137 313.50962793854995 L 410.2590148303897 313.7594575974774 L 415.7218388012457 314.3553593594473 L 421.15045198502474 315.29677313751665 L 426.52303486085606 316.5817626278284 L 431.8178755666742 318.2070157202429 L 437.01345651385213 320.1678503473384 L 442.0885406939219 322.4582257776474 L 447.02225733572726 325.0707593376449 L 451.7941865720853 327.99674852560145 L 456.3844427770911 331.2261984590358 L 460.77375623859893 334.7478545762423 L 464.9435528351502 338.5492404913006 L 468.87603139266514 342.6167008811897 L 472.55423840357787 346.93544926320493 L 475.96213979972856 351.48962050089915 L 479.084689480226 356.262327857309 L 481.90789430661255 361.23572439538583 L 484.41887528996824 366.39106850736925 L 486.6059247080478 371.7087933374348 L 488.4585589050944 377.16857984535386 L 489.96756654257604 382.74943324321185 L 491.1250520856891 388.4297625225071 L 491.9244743279994 394.1874627752409 L 492.3606797749979 399.99999999999994" fill="none" stroke="black" stroke-width="1" /><path d="M 500.0 400.0 L 499.897452347572 406.31668187034717 L 499.39637821348697 412.62045589012456 L 498.4979959502317 418.88620888445627 L 497.2051044964221 425.0889298831465 L 495.52207534019226 431.20380947835287 L 493.45483824459416 437.20633857568936 L 491.0108607795113 443.0724061476126 L 488.19912172908363 448.7783956011421 L 485.03007846791206 454.3012793766965 L 481.51562842325495 459.6187114010728 L 477.66906476396196 464.709117025336 L 473.50502647991027 469.5517800875961 L 469.03944303812784 474.12692675128625 L 464.28947382351953 478.41580578159335 L 459.2734425930638 482.4007649360766 L 454.0107671924431 486.0653231601906 L 448.5218848032207 489.39423829436043 L 442.8281730068143 492.373570016367 L 436.9518669685592 494.99073776103023 L 430.9159730610393 497.23457337846276 L 424.74417926052445 499.09536831241905 L 418.46076266372825 500.5649151014228 L 412.09049448413964 501.63654302732846 L 405.6585428978292 502.3051477586747 L 399.19037411784547 502.5672148595412 L 392.71165208406376 502.42083705852133 L 386.24813716158366 501.86572519679123 L 379.82558424547983 500.9032127989881 L 373.46964067286086 499.5362542356147 L 367.2057443447721 497.7694164708654 L 361.05902246048163 495.60886441501793 L 355.0541912651092 493.0623399257688 L 349.21545720839805 490.1391345279885 L 343.5664199077035 486.8500559462631 L 338.12997730198765 483.20738856914625 L 332.92823337579426 479.22484798819687 L 327.98240882285825 474.91752977851155 L 323.3127550082092 470.30185271048725 L 318.9384715754047 465.39549660488535 L 314.87762803191606 460.21733506480894 L 311.147089630737 454.78736333888094 L 307.76244785005827 449.126621589625 L 304.7379557553958 443.25711385973653 L 302.08646850995666 437.2017230464995 L 299.81938927933646 430.98412221100057 L 297.9466207559431 424.6286825639316 L 296.4765225069128 418.1603784836059 L 295.4158743268093 411.60468993428134 L 294.76984575315936 404.98750266392835 L 294.54197187897046 398.3350065701661 L 294.73413557188746 391.6735926311651 L 295.3465561846759 385.0297488048516 L 296.3777848163559 378.42995530471603 L 297.82470615766704 371.90057966390094 L 299.68254692870005 365.46777200101087 L 301.94489089061125 359.15736090123016 L 304.6037003874164 352.9947503248582 L 307.64934434806395 347.00481795227154 L 311.07063265340446 341.21181536961024 L 314.8548567474036 335.63927049317357 L 318.98783634709764 330.3098926226266 L 323.45397208145096 325.2454805036775 L 328.2363038655526 320.46683376993656 L 333.3165747935645 315.9936681212354 L 338.6753003116135 311.8445345818259 L 344.2918424104799 308.03674316663637 L 350.14448855756774 304.58629126719717 L 356.2105350683312 301.50779705102303 L 362.46637459914785 298.8144381492147 L 368.88758742665283 296.5178958869009 L 375.449036162847 294.6283052899465 L 382.12496354092775 293.15421107919605 L 388.8890928938271 292.1025298404804 L 395.71473093592925 291.4785185347797 L 402.57487244842577 291.2857494883997 L 409.4423064603027 291.52609197787206 L 416.2897235100619 292.19970049863446 L 423.08982356800567 293.30500978047763 L 429.8154241952699 294.83873658636685 L 436.4395685138076 296.7958883046599 L 442.93563256120007 299.1697783180501 L 449.2774316055236 301.95204810586955 L 455.439324998521 305.13269600980226 L 461.39631915000507 308.7001125666711 L 467.1241682127542 312.6411222858993 L 472.59947207511306 316.94103172358786 L 477.79977126807 321.58368368001715 L 482.7036384047053 326.55151732285407 L 487.29076578255365 331.82563401454144 L 491.5420487935543 337.38586859934105 L 495.4396648018277 343.21086588340563 L 498.96714716644476 349.2781620201386 L 502.10945410460226 355.56427049306603 L 504.85303211010154 362.0447723695605 L 507.1858736626815 368.69441048110644 L 509.09756898549983 375.4871871694501 L 510.579351630812 382.396465223001 L 511.6241376975699 389.3950716143099 L 512.2265585091719 396.4554036373994 L 512.382986604841 403.54953703320734 L 512.0915549239938 410.64933568248716 L 511.35216908939475 417.7265624382015 L 510.16651272175693 424.75299066381336 L 508.5380457456598 431.7005160399186 L 506.4719956740872 438.54126819941365 L 503.9753418864515 445.2477217508608 L 501.0567929425468 451.79280625090274 L 497.7267570023607 458.15001468949634 L 493.99730544895925 464.29351005636903 L 489.88212983864327 470.19822956344 L 485.39649232914303 475.83998610597075 L 480.5571697626684 481.19556655489214 L 475.38239160606327 486.2428264840564 L 469.89177197502374 490.9607809490557 L 464.10623599322685 495.32969094867224 L 458.0479407601909 499.3311452159443 L 451.74019122365223 502.94813700316956 L 445.2073512731148 506.1651355438778 L 438.4747503909098 508.968151894806 L 431.568586215534 511.3447988821314 L 424.515823389117 513.2843448985827 L 417.34408907655177 514.7777613214707 L 410.0815655580264 515.81776334607 L 402.7568803093703 516.3988440540468 L 395.39899399571357 516.5173015626781 L 388.0370868134113 516.1712591273277 L 380.70044362296034 515.3606780969533 L 373.41833832169795 514.0873636501916 L 366.2199179094009 512.3549632677148 L 359.1340867024591 510.16895792494586 L 352.1893911530853 507.5366460177712 L 345.413905729024 504.4671200624662 L 338.8351203064261 500.97123623955747 L 332.4798295239965 497.0615768796625 L 326.374024540173 492.75240601736664 L 320.5427876270138 488.0596181668064 L 315.0101900246583 483.0006804997239 L 309.7991934687201 477.59456863321753 L 304.9315557898275 471.86169626015806 L 300.42774096976495 465.82383888013294 L 296.3068340223655 459.50405191275814 L 292.5864610495089 452.926583498134 L 289.2827148033478 446.11678231103474 L 286.4100860653107 439.1010007360367 L 283.98140113056195 431.90649377009095 L 282.007765663541 424.5613140369881 L 280.49851516603064 417.0942033146528 L 279.4611722740043 409.5344809911656 L 278.9014110733875 401.91192987881 L 278.82302859791196 394.25667982718153 L 279.2279236445731 386.5990895864672 L 280.1160830139055 378.9696273803202 L 281.48557525348735 371.39875065431704 L 283.33255195388233 363.9167854707353 L 285.65125661673767 356.553806023308 L 288.43404108509054 349.3395147467005 L 291.671389496218 342.3031234946695 L 295.3519496877007 335.47323625823753 L 299.46257195788036 328.8777338907289 L 303.9883550526971 322.5436613001767 L 308.9126992220918 316.49711756146866 L 314.2173661608893 310.76314939063775 L 319.8825456214293 305.3656484119971 L 325.8869284583062 300.3272526353744 L 332.20778583952756 295.66925254558157 L 338.82105433328786 291.41150218951657 L 345.7014265555126 287.57233562798245 L 352.82244704042114 284.1684890995036 L 360.1566129747011 281.215029222189 L 367.6754794155711 278.72528753710526 L 375.34976859409073 276.7108016727828 L 383.1494828876774 275.1812633854521 L 391.0440210299394 274.14447370350416 L 399.0022971117272 273.6063053775817 L 406.99286191480167 273.5706728097348 L 414.984026108746 274.0395096063306 L 422.9439848328018 275.0127538699925 L 430.8409431771761 276.4883413158772 L 438.643242073131 278.4622062671948 L 446.31948409781916 280.9282905541455 L 453.8386586984035 283.8785603095191 L 461.1702663405175 287.30303062318893 L 468.2844410885633 291.189797986753 L 475.1520711297375 295.5250804287606 L 481.7449167599807 300.29326521042225 L 488.03572535826424 305.4769639215592 L 493.9983428857357 311.0570747869332 L 499.607821458184 317.0128519641054 L 504.84052255405726 323.3219815857438 L 509.67421543578257 329.9606642719276 L 514.0881703793698 336.90370381159545 L 518.0632463261655 344.1246016869775 L 521.5819725910775 351.5956570907074 L 524.6286242835591 359.288072062468 L 527.1892911210347 367.1720613505415 L 529.2519393391752 375.2169665836231 L 530.8064664294194 383.3913743197984 L 531.8447484612591 391.663237522734 L 532.3606797749978 399.99999999999994" fill="none" stroke="black" stroke-width="1" /><path d="M 540.0 400.0 L 539.8177264808318 408.8409071228541 L 539.0777925572173 417.6588440928333 L 537.7823687468309 426.418675544045 L 535.9358367123624 435.0854483779588 L 533.5447749157036 443.6245307533196 L 530.6179355457034 452.0017499923512 L 527.1662127990642 460.183528856021 L 523.2026026282274 468.13701964685566 L 518.7421541039661 475.8302356056681 L 513.8019125737344 483.23217907853393 L 508.40085482948075 490.31296594242025 L 502.5598165304958 497.0439457919635 L 496.3014121577932 503.3978174059693 L 489.64994780640905 509.34873903020696 L 482.63132715071606 514.8724330329175 L 475.27295094527915 519.9462845110825 L 467.6036104498163 524.5494334488188 L 459.6533751913657 528.6628600541862 L 451.4534754997042 532.2694629271276 L 443.03618027331424 535.3541297390964 L 434.4346704526758 537.9038001340585 L 425.6829086952843 539.9075205908777 L 416.815505762496 541.3564910184753 L 407.8675841420095 542.2441028874898 L 398.8746394414569 542.5659687353075 L 389.8724000981431 542.3199429151749 L 380.8966859574045 541.5061334945029 L 371.98326627732075 540.1269052422842 L 363.167717720585 538.1868736806556 L 354.48528289520254 535.6928902108857 L 345.9707300043386 532.6540183593316 L 337.65821416207746 529.0815012240389 L 329.5811409260943 524.9887202375269 L 321.7720325903007 520.3911453957583 L 314.2623977704334 515.3062771372093 L 307.0826048033459 509.7535800892036 L 300.26175946648505 503.75440893110016 L 293.82758750773803 497.33192665543163 L 287.8063224575835 490.51101553851964 L 282.22259917534006 483.31818116135247 L 277.0993535593572 475.78144984945965 L 272.4577288273164 467.93025992706515 L 268.3169887474973 459.7953472058219 L 264.6944381750127 451.40862515183665 L 261.6053512187287 442.8030601963874 L 259.0629073349728 434.0125426756263 L 257.0781356133084 425.07175390256987 L 255.65986748773375 416.01602989073234 L 254.8146980737816 406.8812222627907 L 254.54695629826415 397.70355688962064 L 254.85868395397574 388.51949081486606 L 255.74962377665358 379.3655680278535 L 257.2172166060473 370.2782746531099 L 259.2566076572025 361.2938941279538 L 261.86066189215336 352.4483629406024 L 265.01998844629685 343.77712749994976 L 268.72297402791787 335.31500270463505 L 272.95582517379535 327.09603277324425 L 277.70261920868774 319.1533548894859 L 282.9453637219028 311.519066205989 L 288.6640643402478 304.2240947380191 L 294.83680054355614 297.2980746639453 L 301.4398092368384 290.76922653276523 L 308.44757576202466 284.66424286047976 L 315.83293200238575 279.0081795766554 L 323.5671612041568 273.8243537602199 L 331.6201091127539 269.1342480794689 L 339.96030099537967 264.9574223255256 L 348.5550640978686 261.3114324011817 L 357.3706550614062 258.2117570982637 L 366.37239180438337 255.67173296652498 L 375.5247893561758 253.70249754567595 L 384.7916991131626 252.31294119965412 L 394.1364509728792 251.50966775872868 L 403.52199778989075 251.29696414066055 L 412.9110615868447 251.67677908703178 L 422.2662809462323 252.64871111515436 L 431.55035900271844 254.21000574980934 L 440.726211452494 256.3555620625883 L 449.75711399499806 259.0779485099624 L 458.6068486235398 262.36742802452306 L 467.2398481848404 266.2119922772746 L 475.62133863328813 270.5974049925533 L 483.7174784137427 275.50725416124214 L 491.4954944170149 280.92301296258813 L 498.9238139646346 286.82410917025277 L 505.97219229417686 293.1880027843638 L 512.6118350331737 299.99027159843683 L 518.8155151684414 307.2047043782143 L 524.5576840384333 314.8034012988643 L 529.8145758989042 322.7568812577125 L 534.564305636652 331.034195651858 L 538.7869592323138 339.6030481837724 L 542.4646766010086 348.429920233396 L 545.5817264689557 357.48020131242583 L 548.1245729749307 366.71832409554247 L 550.081933717433 376.10790350431097 L 551.4448290016142 385.6118793025161 L 552.2066220742189 395.192661646807 L 552.363050169888 404.8122790237998 L 551.912246228038 414.432527994281 L 550.8547511760157 424.01512415689155 L 549.1935167111878 433.52185373772096 L 546.9338985519341 442.9147252085992 L 544.0836401649942 452.1561203355782 L 540.652847014163 461.2089440601544 L 536.6539514127539 470.03677261918335 L 532.1016680994372 478.6039993151894 L 527.0129406938383 486.87597735684574 L 521.4068792245309 494.81915919976717 L 515.3046889576115 502.401231830388 L 508.72959078877534 509.59124745054544 L 501.7067334955848 516.3597490373916 L 494.26309817928444 522.6788902723667 L 486.4273952569645 528.5225493541013 L 478.229954394958 533.8664362331932 L 469.70260780296906 538.6881928317645 L 460.8785673354545 542.9674858374048 L 451.7922958721003 546.6860916895034 L 442.4793734727582 549.8279734059099 L 432.97635882382974 552.379348929251 L 423.3206465127222 554.3287507049508 L 413.5503206845684 555.6670762369102 L 403.70400565083526 556.387629401786 L 393.8207140326635 556.4861523387291 L 383.93969303274673 555.960847768154 L 374.10026943820844 554.8123916304734 L 364.3416939632343 553.0439359736131 L 354.7029855441542 550.6611020563519 L 345.22277620117984 547.6719636729788 L 335.9391570801337 544.0870207432687 L 326.8895262842101 539.9191632501945 L 318.110439100103 535.183625645974 L 309.6374612147687 529.897931884833 L 301.50502550863325 524.0818312781223 L 293.7462929982996 517.7572254039777 L 286.3930184867635 510.94808633945615 L 279.47542146187027 503.680366517825 L 273.02206276432673 495.9819005473426 L 267.0597275250483 487.8822993602572 L 261.61331484809693 479.4128370917855 L 256.7057346900104 470.60633111835716 L 252.35781235903335 461.49701571231515 L 248.58820102876402 452.1204097964452 L 245.4133026300975 442.5131793060381 L 242.84719745323244 432.71299468859416 L 240.90158275800837 422.7583840916509 L 239.58572065609258 412.6885828074646 L 238.9063954926812 402.54337955935546 L 238.8678809185342 392.3629602283192 L 239.47191680549759 382.1877496300162 L 240.7176961203011 372.0582519613563 L 242.60186183251705 362.0148905426223 L 245.11851389327452 352.09784748534855 L 248.25922628179373 342.3469039179709 L 252.01307407719204 332.80128140061515 L 256.3666704734761 323.4994851572294 L 261.3042136163209 314.47914974765877 L 266.80754310130436 305.77688779418537 L 272.8562059348759 297.42814236654243 L 279.42753172162065 289.4670436165243 L 286.49671680451604 281.92627023804914 L 294.0369170489809 274.8369163109903 L 302.01934892675195 268.2283640673113 L 310.41339852212474 262.1281630960865 L 319.18673805098416 256.5619164799782 L 328.3054494524809 251.5531743297124 L 337.7341545842781 247.12333515518995 L 347.43615152513155 243.29155548216863 L 357.37355646329524 240.07466809206437 L 367.5074506259316 237.4871092294866 L 377.7980316834982 235.5408550877404 L 388.20476904401875 234.2453678468506 L 398.68656243533866 233.60755150181544 L 409.201903158982 233.63171768091962 L 419.7090373871022 234.31956161518383 L 430.1661308643579 235.67014838053768 L 440.5314343693274 237.67990949423776 L 450.76344928540584 240.34264990656126 L 460.82109262896415 243.6495653880481 L 470.6638608829548 247.58927027169986 L 480.25199198711306 252.14783546873053 L 489.54662484139936 257.30883663586104 L 498.5099556873897 263.05341233191973 L 507.1053907428702 269.3603319618087 L 515.2976944779296 276.2060732668761 L 523.0531329363213 283.5649090825658 L 530.3396115237028 291.4090030470211 L 537.1268067045366 299.7085139082826 L 543.3862910718366 308.4317080429561 L 549.0916512785135 317.54507976588184 L 554.2185983457184 327.0134789785691 L 558.7450698921867 336.8002456740456 L 562.6513238590704 346.86735078750127 L 565.920023336975 357.1755428557292 L 568.5363121357744 367.68449992403436 L 570.4878807731498 378.3529861170897 L 571.7650225945189 389.13901227022706 L 572.3606797749978 399.99999999999994" fill="none" stroke="black" stroke-width="1" /><path d="M 580.0 400.0 L 579.7380006140914 411.36513237536104 L 578.7592069009476 422.697232295542 L 577.0667415434301 433.9511422036337 L 574.6665689283027 445.08196687277115 L 571.5674744912149 456.04525202828637 L 567.7810328468126 466.7971614090131 L 563.3215648186172 477.2946515644294 L 558.2060835273711 487.4956436925692 L 552.4542297400201 497.35919183463966 L 546.0881967242137 506.84564675599506 L 539.1326448949995 515.9168148595045 L 531.6146065810814 524.5361114963308 L 523.5633812774586 532.6687080606523 L 515.0104217892986 540.2816722788205 L 505.9892117083683 547.3441011297582 L 496.53513469811526 553.8272458619745 L 486.6853360964119 559.7046286032773 L 476.47857737591704 564.9521500920055 L 465.9550840308492 569.548188093225 L 455.15638748558916 573.4736860997299 L 444.12516164482713 576.7122319556979 L 432.90505472684043 579.2501260803324 L 421.5405170408523 581.076439009622 L 410.07662538618985 582.183058016305 L 398.55890476506835 582.5647226110738 L 387.0331481122225 582.2190487718285 L 375.5452347532253 581.1465417922146 L 364.1409483091616 579.3505976855804 L 352.8657947683091 576.8374931256965 L 341.76482144563306 573.6163639509061 L 330.8824375481956 569.6991723036452 L 320.26223705904573 565.1006625223089 L 309.94682464379053 559.8383059470652 L 299.97764527289786 553.9322348452533 L 290.39481823887917 547.4051657052725 L 281.2369762308975 540.2823121902104 L 272.54111011011173 532.5912880836888 L 264.3424200072669 524.362000600376 L 256.6741733397623 515.6265344721539 L 249.56757031876413 506.419027257896 L 243.05161748797744 496.77553636003836 L 237.15300980457454 486.7338982645052 L 231.8960217395988 476.3335805519073 L 227.3024078400688 465.61552725717377 L 223.3913131581209 454.62199818177413 L 220.17919391400255 443.3964027873211 L 217.67974871970395 431.98312932153385 L 215.90386064865822 420.42736984718334 L 214.85955039440387 408.774941861653 L 214.55194071755784 397.0721072090751 L 214.98323233606402 385.36538899856697 L 216.1526913686313 373.7013872508554 L 218.05664839573873 362.1265940015038 L 220.68850915673806 350.6872085920067 L 224.03877685560667 339.42895388019394 L 228.0950860019824 328.39689409866935 L 232.8422476684193 317.6352550844119 L 238.26230599952677 307.1872475942169 L 244.33460576397104 297.09489440936164 L 251.03587069640204 287.3988619188044 L 258.340292333398 278.13829685341165 L 266.21962900566126 269.350668824213 L 274.64331460812423 261.0716192955939 L 283.5785767304849 253.33481759972415 L 292.9905636931579 246.1718245714849 L 302.84247999783366 239.61196435380342 L 313.09572966793996 233.6822048917405 L 323.7100669224281 228.4070476000281 L 334.64375359658925 223.80842665314873 L 345.85372269615954 219.90561830962653 L 357.29574744591974 216.7151606431035 L 368.92461517142385 214.25078401215583 L 380.69430533249806 212.52335255882784 L 392.55817100982904 211.54081698267765 L 404.4691231313557 211.30817879292144 L 416.37981671338673 211.8274661961915 L 428.24283838240274 213.09772173167426 L 440.0108944374312 215.11500171914105 L 451.6369987097181 217.87238753880982 L 463.0746594761885 221.36000871526497 L 474.2780646858795 225.5650777309961 L 485.2022647641572 230.4719364486796 L 495.8033522680552 236.0621139753044 L 506.0386376774803 242.31439575581308 L 515.8668206212756 249.204903639277 L 525.248155854156 256.7071866169177 L 534.1446133202837 264.7923218887105 L 542.5200316616421 273.42902587401954 L 550.340264554329 282.5837747418871 L 557.5733192833123 292.2209339983876 L 564.1894869959807 302.3028966320195 L 570.1614641068592 312.79022928357733 L 575.4644643600253 323.64182587447874 L 580.0763210919156 334.8150680972315 L 583.97757927523 346.2659921437453 L 587.1515769643618 357.9494610216348 L 589.5845158040539 369.8193417856209 L 591.2655203056584 381.8286869907223 L 592.1866856392658 393.92991965621457 L 592.343113734935 406.07502101439223 L 591.7329375320824 418.2157203060748 L 590.3573332626366 430.30368587558155 L 588.2205207006189 442.2907168116286 L 585.3297513582083 454.1289343772798 L 581.6952846559012 465.77097247174265 L 577.3303521418745 477.17016636944805 L 572.2511098829611 488.280738987464 L 566.4765791965137 499.0579839408824 L 560.0285759387174 509.45844465732245 L 552.9316286104186 519.4400888360943 L 545.2128855860798 528.9624775548052 L 536.9020118148821 537.9869283461987 L 528.0310753851063 546.4766715907266 L 518.6344243835451 554.3969995956779 L 508.74855452070204 561.7154077595303 L 498.4119680297251 568.4017272504421 L 487.6650243822859 574.4282486603595 L 476.5497833977943 579.7698361309317 L 465.10984135329073 584.4040314842009 L 453.3901607299823 588.3111479296884 L 441.4368942585425 591.4743529599193 L 429.2972039488926 593.8797400884309 L 417.0190758111105 595.5163891277505 L 404.65113099230024 596.376414749525 L 392.24243406961335 596.4550031147801 L 379.8422992520822 595.7504364089802 L 367.5000952534565 594.2641051639935 L 355.26504960477075 592.0005082970346 L 343.18605317890757 588.9672408449891 L 331.31146569990057 585.1749694210118 L 319.68892300718215 580.6373954687662 L 308.36514683939623 575.371206437923 L 297.38575789377995 569.3960150523903 L 286.7950929055409 562.7342868900034 L 276.6360264770934 555.4112565388779 L 266.9497983695854 547.4548326411491 L 257.77584694886866 538.8954921791884 L 249.15164945502045 529.7661644024324 L 241.1125697388259 520.1021048345272 L 233.69171408033156 509.94075984038153 L 226.91979567382833 499.3216222708128 L 220.82500833051188 488.2860787385804 L 215.43290991471892 476.87724911359555 L 210.76631599221733 465.1398188568536 L 206.845204129633 453.1198648419853 L 203.68662924292386 440.8646753402002 L 201.30465034998608 428.42256486864903 L 199.71026903818085 415.8426846237637 L 198.91137991197493 403.174829239901 L 198.91273323915647 390.4692406294569 L 199.7159099664221 377.7764096735652 L 201.31930922669667 365.1468765423923 L 203.71814841154676 352.6310304309275 L 206.90447583266672 340.2789094999618 L 210.8671959468498 328.1400018126338 L 215.59210706929358 316.26304805452975 L 221.06195145073423 304.69584681978927 L 227.25647754494113 293.48506323708 L 234.15251424472837 282.67604169764184 L 241.7240568170547 272.3126234329081 L 249.94236422114952 262.43696967157996 L 258.7760674481427 253.08939108546048 L 268.1912884765325 244.30818420998355 L 278.1517693951977 236.12947549924823 L 288.6190112047219 228.58707364659136 L 299.5524217686804 221.71233077043982 L 310.9094723494492 215.53401303144236 L 322.6458621281351 210.0781812108763 L 334.71569007556195 205.36808174214826 L 347.07163351101934 201.42404864702348 L 359.6651326577725 198.26341678619045 L 372.44658047931904 195.9004467900287 L 385.36551705809813 194.34626199019704 L 398.3708277589501 193.60879762604918 L 411.4109444031623 193.69276255210448 L 424.43404866545853 194.59961362403706 L 437.388276895914 196.32754289108289 L 450.22192556147877 198.87147767259833 L 462.8836564976807 202.22309354592767 L 475.32270116010915 206.37084022195071 L 487.48906306750615 211.29998023388058 L 499.3337176337086 216.9926403142721 L 510.8088085942355 223.42787528496908 L 521.867840245042 230.58174423507887 L 532.4658647257597 238.42739871319515 L 542.5596635975949 246.935182612193 L 552.1079229869068 256.0727433781984 L 561.0714015892216 265.8051541299368 L 569.413090855016 276.0950462308215 L 577.0983667078906 286.90275181398454 L 584.0951321776572 298.1864557201683 L 590.3739503652714 309.9023562701607 L 595.908167193296 322.0048342573837 L 600.6740234345817 334.4466295125345 L 604.6507555529153 347.17902436091686 L 607.8206849323736 360.1520332644456 L 610.16929511688 373.314597914381 L 611.6852967277786 386.6147870177201 L 612.3606797749978 399.9999999999999" fill="none" stroke="black" stroke-width="1" /><line stroke="black" stroke-width="2" x1="400" x2="400" y1="350" y2="450" /><line stroke="black" stroke-width="2" x1="350" x2="450" y1="400" y2="400" /></svg>